<svg width="1400" height="1400" version="1.1" viewBox="0 0 1400 1400" xmlns="http://www.w3.org/2000/svg"><g transform="translate(-1278 -896)"><path transform="translate(592 787)" d="m687 211v13.6c6.1-1.67 14.1-1.73 18.5-2.56 30.4-5.66 61.5-9.44 92.1-14 131-19.3 261-46.4 392-63-0.933 11.7-18.8 10.4-28 11.9-30.6 5.06-61.3 10.6-92 14.9-127 18-256 37.7-383 61v6.52c7.78-1.77 16.5-1.99 24-3.17 21.8-3.43 43.6-7.01 65.3-10.8 98.4-17.1 197-31.8 296-47.7 39.1-6.29 78-14.4 117-19.4v33.3c0 3.59 1.03 9.49-1.37 12.5-4.17 5.28-24 5.49-30.6 6.51-28.4 4.39-57.1 9.27-85.3 14.9-65.5 13.1-132 21.9-197 34.2-54.4 10.2-109 20.9-164 28.1-8.01 1.05-16 2.28-24 3.59v6.51c111-19.5 222-38 333-57.3 44.4-7.71 92.2-22.7 137-23.7-1.52 12.8 0.719 23.9-8.43 34.6-12.1 14.1-31.7 16-48.9 19.1-33.3 5.84-66.6 13.5-100 18.5-65.1 9.68-130 23.6-195 35.3-39.5 7.13-79.1 14-119 20.9v7.29c83.6-13.8 167-27.9 249-46.6 36.8-8.4 74.8-13.5 112-20.2 6.32-1.14 33.1-9.98 35.6-1.9 5.12 17-12.7 29.5-26.2 34-36.8 12.3-78 15.7-116 23.1-84.8 16.6-170 32.3-255 47.4v4.83c60.4-11.5 121-22.9 181-33.1 37.9-6.37 75.6-14.1 113-21.2 9.56-1.79 37.9-13.1 33.9 5.95-4 18.7-19.8 24.4-36.5 27.7-26.7 5.33-53.3 10.1-80 15.5-70.5 14.1-141 27.2-212 40.3v4.89c39.5-7.39 79.1-14.7 119-21.8 37.4-6.75 74.6-14.6 112-21.6 6.61-1.23 32.6-10.2 37.3-4.16 7.72 9.89-12.2 26.1-19.9 28.1-38.1 9.56-77.5 15.5-116 23.6-43.9 9.19-87.9 17.6-132 26v5.09c28-5.37 56-10.7 84-15.9 43.1-8.05 86.9-22.7 131-26.3-0.0689 22.2-15.9 26.3-34.7 30.2-32.8 6.89-65.6 15-98.7 20.6-27.1 4.53-54.2 9.48-81.3 14.7v7.45c5.78-1.1 11.6-2.21 17.3-3.31 36.1-6.85 72-15 108-22.2 6.12-1.23 32-10.1 35.9-4.19 8.2 12.5-16 23.3-23.9 24.9-37.9 8.05-77.3 13.2-115 23.3-7.53 2.03-15.1 3.98-22.7 5.87v4.96c20-4.11 40-8.19 60-12.2 15.3-3.06 31.1-8.06 46.7-8.73 0.195 8.53 0.0614 15.7-7.02 21.8-5.18 4.42-13.4 4.77-15.7 11.6 13.4-0.611 23.4-5.62 28.2-18.7 1.73-4.7-0.348-11.4 3.26-15.2 9.27-9.94 30.7-5.2 41.8-13.6 9.59-7.24 6.41-22.8 14.9-28.6 10.8-7.32 26.6-3.51 37-11.4 9.09-6.92 7.43-23.2 15.2-28.4 10.4-7.09 26.3-3.05 36.9-11.3 10.5-8.15 8.99-24.7 17.8-31.6 10.6-8.33 28.4-3.63 39.6-12.1 7.73-5.88 12.6-12.9 15-22.3 1.09-4.34-0.707-12.6 3-15.6 11.2-9.24 33.1-4.23 46-11.9 8.83-5.25 16.2-13.3 19.2-23.2 1.52-4.96 0.641-14.1 4.25-17.9 3.28-3.4 9.56-3.06 13.9-3.87 10.4-1.95 22.4-3.55 32-8.28 10.4-5.13 20.1-14.4 22.6-26 1.49-6.71-0.547-16.7 3.68-22.4 4.81-6.4 17-6.82 24.3-6.97 8.35-2.49 16.3-4.99 30.7-12v128c0 13.4 4.16 39.8-2.71 51.6-7.76 13.3-34.5 27.6-48 35.1-0.827-3.47-0.68-8.45-2.71-11.4-2.21-3.27-7.17-4.21-10.6-5.6-17.7-7.11-28.3 7.02-42.7 17.7-3.89 2.88-10.6 9.33-15.9 8.77-9.21-0.984-14.3-20.8-24.1-24.1 2.07 10.7 16.1 17.8 16.6 28 0.573 10.9-20.1 12.4-23.6 20.4-4.56 10.5 4.36 25.8-0.279 37-2.73 6.57-11.3 10.7-16.8 14.6-13.6 9.86-28.4 18.7-41.3 29.3-0.88-3.68-0.626-8.28-2.13-11.7-11.3-25.9-37 5.71-49.9 9.05l-10.7-38.7c-12.5 8.24 13.7 33.7 4.69 44.9-5.6 6.97-25.1 21.9-34 23.1-5.07 0.663-9.24-2.51-14.7-1.27-12.8 2.92-27.9 8.79-40 14.1-9.87 4.35-4.45 18.8-13.5 21.4-15 4.24-32.4-1.91-47.9 1.76 15.7 16 49.5-12.8 54.7 17.3-18.2 0.215-41.5 23.7-56 34.2-7.44 5.36-14.4 12.4-24 11.2l-1.33 20-50.7 2.67v5.33l50.7-4c0 19.9-14.1 25.3-29.3 35.8-19 13.1-38.3 26-57.3 39.1v7.67c28-20 55.6-41.6 85.3-58.3 12.9-7.28 26.8 14.7 20.9 25.8-3.34 6.28-14 10.4-19.6 14.5-17.7 13-36.6 24.2-54.7 36.7-7.55 5.21-21 10.4-22.7 20.2l33.3-20 64-42.7c2.03 8.51 1.36 17.6 6.73 25.1 9.04 12.6 36.5 15.8 50.6 20.3v2.67c-25.7 8.79-50 28.9-73.3 42.7v1.33c8.57 1.65 16.9-5.09 24-9.35 17-10.2 35.7-27.8 54.4-34.1 6.05-2.03 15.1 3.25 21.6 3.43 14.4 0.347 26.2-3.45 40-6.65-22.5 22-47.7 30.1-74.7 44.3-7.44 3.95-20.7 13.8-20.4 23.5 0.221 6 15.3 11.5 20.4 11.9 21.1 1.72 44.2-8.77 65.3-10.4v36c5.56 1.32 11.2 2.64 14.7-2.67-15.3-1.16-10.7-23.6-10.7-34.7l105-17.3c-3.97 19.1 15.5 10.2 22.2 22.8 10.9 20.2-7.95 41 20.4 53.2-7.91 6.05-19.4 10.2-29.3 10.7l-13.3-42.7-13.3 8h9.33l14.7 37.3c-7.93 3.43-32.7 19.5-29.7 30.5 0.987 3.64 5.55 5.11 8.16 7.33 2.68 2.28 4.61 6.24 8.35 6.89 5.79 1.01 14-3.41 19.8-4.44 19.2-3.37 38.3-7.35 57.3-11.6 6.05-1.35 22.5-8.09 27.8-3.56 2.68 2.29 2.65 6.27 2.96 9.45 0.48 4.71 2.63 11.1-0.133 15.5-5.01 7.88-18.1 5.73-21.3 15.2l22.6-7.48 17.4 12.6 41.3 12.2v2.67c-16.6 5.43-30 9.13-24 29.3-4.88 2.73-6.57 5.11-5.33 10.7h2.67c3.65-6.51 15.2-9.49 14.8 1.33-0.307 8.21-8.89 15.4-14.8 20v2.67l1.33 1.33 24-4v-2.67l-10.7-1.33c7.19-14 9.85-28.9-10.7-29.3 1.25-4.25 0.867-9.47 3.47-13.2 14.8-21.1 46.5-8.91 67.2-12.3 10.8-1.77 21.2-10 32-9.13-6.95 23.9 8.96 46.1 20 65.3l-64 26.7-25.3 13.3c22.7-2 46.8-18.7 68-26.9 6.75-2.61 17.3-10.1 24.8-8.49 16.4 3.63 28.6 19.5 28.6 35.4 0 4.67 0.748 10.3-3.09 13.7-6.76 6.08-19.1 8.12-27.6 11-16.6 5.59-32.9 12.6-49.3 18.7-8.53 3.21-23.5 5.55-28 13.9 37.2-3.72 71-32.3 108-38.7l1.33 36c14.1-3.85 33.5 1.63 43.8 12.1 8.17 8.4 8.67 19.3 21.6 21.2-4.44 14.9-21.5 13.6-34.7 14.5-34.7 2.43-69.3 8.03-104 9.45v4l135-13.3c-0.627 13.3-10.2 15.2-21.3 19.1-17.9 6.27-35.5 13.2-53.3 19.6-7.33 2.63-19.9 3.77-22.7 11.9l94.7-32c0 41.9-6.67 83.4-6.67 125 0 11.2-1.33 22.2-1.33 33.3 0 4.33 1 10.5-2.13 14-7.56 8.43-29.9 10.4-40.5 13.8-36.1 11.6-73.9 20.2-109 33.5v2.67l1.33 1.33 105-31.6 44-12.4c0 7.63 2.85 22.6-2.32 28.8-8.52 10.2-36 12.8-48.3 16.6-44.7 13.9-89.7 27.3-135 40.1-17.3 4.92-34.8 9.27-52 14.6-1.45 0.447-3.16 0.842-4.9 1.29h17.6l223-65.3c0 21.8-0.094 43.5-0.273 65.3h4.22c1.15-33.4 2.55-66.7 4-100 2.6-59.3 1.35-120 8.44-179 0.64-5.41 0.361-16.5 4.41-20.5 5.25-5.2 27.8-4.69 35.2-4.8 4.67-0.053 27 3.6 25.8-3.99-1.2-7.49-10.1-2.11-13.8-0.947-14.2 4.51-30.9 1.49-45.3 4.93l-1.33-1.33c15.5-37 76.4-46.7 112-46.7 11.6 0 30.6-1.87 39.6 7.04 10.7 10.5 12.5 32.2 13.9 46.3 3.12 31.2 5.48 61.9 5.11 93.3-0.173 15.5 2.53 28.8-4 42.7 19.2 0 40.6 3.6 58.7 10 6 2.12 10.1 6.93 16 8.65 3.36 26.6 2.03 53.2 2.68 80 0.529 21.3 1.29 42.7 1.86 64h5.73c-1.55-32.9-1.52-65.7-2.34-98.7-0.307-12.5-5.13-32.2-0.467-43.9 2.2-5.49 8.81-6.85 13.9-8.51 12.8-4.17 25.7-8.03 38.7-11.7 33.9-9.77 67.5-20.7 101-30.9 17.2-5.15 35.5-8.53 52-15.6-2.28-14.3 3.75-29.5 3.88-44 0.253-29.4-2.55-58.7-2.55-88 0-15.6 1.56-44.8-6.69-58.5-3.63-6.01-16.3-7.05-22.6-8.48-20.7-4.64-40.5-15.3-61.3-18.8-5.11-0.867-27.2 14-25.9 1.72 1.99-19 18.5-14.7 31.2-11.5 32.4 8.09 65.9 15.7 97.3 26.9 40.5 14.5 82.8 24.6 124 37.1 36.5 11.1 72.9 22.6 109 34.1v-5.37c-77.3-23.6-155-47.5-232-71-35.8-10.9-74.4-17.1-109-30.3v-2.67l6.67-1.33c-6.87-20.7 14.1-16.7 29.3-14.2 31.3 5.09 62.8 15.3 93.3 23.9 71.1 20 142 42.5 212 64.7v-5.18c-80.5-25.6-161-51-243-73.6-21.3-5.93-43.4-11.7-65.3-15.1-7.88-1.23-20.6 2.01-27.6-1.39-7.53-3.67 0.799-17.1-6.19-21.8-11.8-8.05-31.8-7.8-44.9-14.7 0.867-16.6-4.81-36.4 8.12-49.3 6.17-6.13 19.6-5.57 23.8-12.4 5.6-9.08-1.53-22 2.17-31.6 4.23-11 20.4-17.8 27-28.1 6.01-9.31 12.3-21.2 15-32 0.907-3.71 0.015-12.1 4.29-13.7 6.24-2.4 21.2 3.81 27.6 5.53 24.6 6.61 49.8 11.5 73.3 21.5-7.19 4.09-20.8-4.79-25.7 0.814-3.23 3.68 0.507 20.9 1.16 25.9 2.25 17.2 6.05 40.6-3.44 56 16.1 5.33 40.4 14.2 57.3 13.2 23.1-1.36 51.1-18.3 72-27.7 11.5-5.13 27.8-21.7 40-22.4 5.2-0.28 11.1 3.56 16 5.04 16.2 4.89 31.9 12.1 48 17.6v-4.56c-6.27-2.54-12.5-5.01-18.7-7.32-7.49-2.8-35.1-7.87-37.7-15.7-2.37-6.97 6.64-15.4 9.57-20.9 5.4-10.2 4.71-21.6 4.15-33.3l42.7-16.6-4-1.45-38.7 14.1v-16l8.68-5.07 3.32-3.43c5.62-3.08 10.1-10.4 15.3-14.1 4.72 0.504 7.11-0.819 8.21-3.38-0.982-11.6-1.37-24.2 6.2-26.1 0.277-0.242 0.592-0.49 0.906-0.736v-4.91c-9.33 4.43-18.8 8.05-26.7 7.44-12-0.947-24.8-9.68-36-13.7v-2.67l56-23.3 6.67-2.44v-5.26c-2.06 0.772-3.94 1.45-5.33 2.06-20.3 8.81-45.7 23.8-68 25 0.013-4.12 1.49-10.7-1.03-14.2-3.83-5.35-20.1-7.95-25.6-5.76l2.67 4c-19.8-3.25-48.6 16.3-66.7 24-5.15 2.2-18.2 3.77-21.1 8.43-5.13 8 3.76 24-0.986 33.7-2.19 4.45-11 6.21-15.2 8.17-14.9 6.85-33 17.4-49.3 19.1 0-18.7-1.08-37.3-1.32-56-0.067-5.17-2.12-16.4 3.08-19.6 9.77-6.03 33.4 0.986 44.9 0.0527 9.35-0.773 15.9-8.54 25.3-7.16l5.33-6.67v-1.33c-5.49-5.87-3.64-13.8-4-21.3 26.2-4.85 53 5.07 77.3-8.4 10.4-5.77-0.519-25.6 9.56-28.5 24.2-7.01 48.4 5.64 71.8-7.64 12.8-7.27 3.45-17.1 8.31-27.4 1.61-3.4 5.7-6.11 10.4-8.23v-4.95c-5.92 6.14-17.4 8.42-25.3 9.11l1.33 2.67-8 1.33v-4c-59.9 1.23-120 4-180 4-13.9 0-27.5 1.02-41.4 1.3-3.33 0.068-12 1.49-13.2-3.03-1.6-6.36 7.8-7.46 11.9-7.17 16.7 1.18 33.9-0.98 50.7-1.71 28.4-1.24 56.9-0.282 85.3-1.44 39.2-1.59 79.4-5.64 119-2.7v-13.1c-18.3 0.306-36.4 1.23-54.7 1.23-6.61 0-19-2.53-21.3 5.33l-6.67-4 5.33 1.33c-4.67-5.34-15-1.83-21.3-1.33-29.5-4.48-29.5-0.396-48 4-0.88-5.26-25.2-2.67-30.7-2.67-24.4 0-49 1.8-73.3 2.23-8.72 0.155-22.3 3.39-30.6 0.957-5.17-1.53-4.39-8.63-1.77-12.1 3.93-5.17 13.1-7.79 19-9.77-2.89-16.5-1.33-32.7-1.33-49.3 0-4.87-1.71-13.9 2.13-17.7 3.24-3.16 8.27-1.64 12.1-3.1 12.2-4.57 37.1-9.81 45.7-19.2l-37.3 9.64-22.7 5.02-1.33-37.3c-20.1 4.07-35.7-18.2-54.7-15.4-11.9 1.72-27.8 15.3-38.7 21.1-3.73 1.98-10 6.96-14.4 5.01-5.93-2.63-9.52-13.4-12.7-18.6-9.05-15.2-18.3-30.3-27.5-45.3-2.69-4.41-11.3-14.6-10.1-19.9 1.84-8.08 24.1-16.2 31.3-18.8v64l5.33 1.33v-65.3c8.53 1.11 31.5 8.8 36 16.3 3.05 5.07 1.32 14 1.48 19.7 0.44 15.6 1.23 31.1 1.23 46.7h5.33c0-16.9-1.31-33.8-1.33-50.7-0.013-5.31 2.59-16.4-0.854-20.7-9.87-12.2-31.8-7.35-39.1-23.3l-17.3 1.33c2.53 8.67-5.55 10.7-12 14.3-14 7.77-21.6 15.4-37.3 8.36l46.7-37.9 24-22.1c-19.5 5.06-40.7 28.8-56 41.7-5.56 4.68-13.8 14.2-21.3 15-5.65 0.572-12.3-3.89-17.3-5.96l1.33-5.33-6.67-9.33c-10.4 1.92-34.1-2.72-39.5-13.5-4.28-8.41-2.52-26.9-0.467-35.9 9.39 3.19 31.8 9.36 37.3 17.9 5.29 8.2-3.25 25.1 8.04 28.8-0.093-7.97-2.13-19.4 1.57-26.7 8.05-15.9 40.5-29.3 55.8-37.7 35.7-19.8 69-43.9 104-64.5 11.1-6.51 22-13.5 33.2-19.8 4.04-2.28 10.9-2.8 13.8-6.54 3.45-4.4-1.63-12.9-1.77-18.1-0.52-17.5-0.052-35.1-0.279-52.6-0.067-5.03-1.47-14.6 3.35-17.9 10.4-6.99 35.2-7.07 47.6-8.46 28.8-3.23 64.9-5.62 92-15.8v-1.33l-143 20-1.19-32h-54.4c-2.8 0.374-5.6 0.739-8.39 1.09-115 14.3-229 38.9-344 56.6-39.9 6.16-80.9 19.7-121 21-9.4 0.308-2.09-14.4-10.8-13.1-10.3 1.61-21.2 6.5-31.9 8.4-7.48 1.32-17 0.364-24 3.5-10.9 4.9-14.8 15.8-28 17.1 0-9.77-4.77-37.6 2-44.9 6.47-7.01 28.9-6.37 38-8.19 36.6-7.29 74-11 111-18.1 44.9-8.73 90-16.4 135-23.5h-22.8l-89.8 14.1-172 28.6c-1.2-13.8 34-12.4 44-14.5 49.5-10.6 101-16.9 151-24.9 6.71-1.08 13.4-2.14 20.1-3.21h-88.8zm660-102c3.56-0.0116 6.99 0.393 9.42 0.918l-24 4c2.41-3.72 8.65-4.9 14.6-4.92zm666 4.03 0.881 0.445zm-216 0.379c1.67 0.0977 2.84 0.954 4.29 3.18l4-1.33 4 13.3-16-12v-2.67c1.53-0.355 2.71-0.568 3.71-0.51zm214 0.51-18.7 1.33v1.33h18.7zm-227 1.09c11.3-0.0838 19.1 16.5 23 25.6l-25.3-22.7v-2.67c0.78-0.161 1.54-0.241 2.29-0.246zm-31.6 0.246-28 19.9-54.7 34.8-1.33-4c-31.5 8.84-65.2 11.8-97.3 17.7-65.6 12.2-132 22.2-197 36-22.9 4.85-46.3 7.76-69.3 12.1-5.07 0.948-20.2 6.2-22.2-0.723-1.79-5.92-3.2-31.7 1.71-35.8 5.77-4.79 20-3.94 27.2-5.35 24-4.68 48-8.72 72-13.3 81.7-15.7 164-29 247-41.7 40-6.17 82.2-19.3 123-19.6zm18.7 2.67c15.2 0.501 22.3 18.4 33.3 26.7l1.33 14.7h-1.33zm207 0-12 4zm-217 1.33c5.6 19 2.67 44.2 2.67 64 0 7.8 1.39 17-2.87 23.9-10.3 16.8-42 28.7-58.5 39.1-46.9 29.7-93.7 59.3-141 87.9-11.7 7-26.8 25.3-40.1 28-11.2 2.2-3.59-17.2-2.57-21.6h-6.67l3.47-26.4 15.2-13.6c-22.2 8.88-26.8 32.1-22.7 54.7-4.32 0.833-9.13 0.437-11.2-4.29-1.93-4.43-0.801-11-0.801-15.7 0-12.5-5.59-36.6 5.41-45.3 48.4-38.1 104-70.7 156-104 33.7-21.8 67.4-49.9 104-66.6zm-521 8c-4.4 5.79-17 6.11-24 6.67v-2.67zm533 1.33c13.6 7.35 38.9 34.3 37.3 50.7-11.3-9.58-19.8-26-30.1-37.3-4.16-4.55-8.76-6.85-7.24-13.4zm-600 10.7v1.33h-9.33zm597 2.67c18 2.91 39.7 40.5 41.3 57.3-6.95-3.95-6.72-11.7-10.6-18.1-8.01-13-28.6-24.5-30.7-39.3zm4.96 17.1c3.55-0.204 7.48 4.77 9.31 6.87 7.69 8.8 12.9 16.9 16.4 28-5.87-3.58-8.75-9.95-13.9-14.5-3.96-3.44-9.85-5.17-13.3-9.06-2.05-2.35-3.49-9.01 0-10.9 0.483-0.264 0.982-0.399 1.49-0.428zm146 0.73c-22.7-0.329-51.2 9.27-72 12.7-8.04 1.32-22 0.647-26.7 8.11 26-0.072 55.9-7.09 81.3-12.8 7.99-1.79 21-1.41 26.7-7.23-2.96-0.5-6.08-0.75-9.32-0.797zm-257 12.8c-6.88 12.6-27.1 20.8-38.7 28.9-34.6 24.4-70.7 51.1-108 71.1v-6.67c-9.08 2.76-25.7 1.68-30.7 10.7l29.3-4c-15.4 18.1-41.9 23.1-64 27-17.6 3.06-38.3 11.5-56 11.2-10.8-0.188-23.5-8.24-33.3-12.4-17.2-7.34-35.4-13-52-21.8 15.1-9.25 40.1-9.22 57.3-12.9 47.2-10 95.1-18.9 143-27 17.8-3.02 35.7-5.97 53.3-9.72 7.48-1.59 16-1.91 21.3-7.72-20.7 0.057-42.2 7.11-62.7 10.6-54.4 9.19-108 21.2-163 30.7-18.2 3.15-37.7 10.6-56 11.7-5.24 0.312-16.6-2.88-20-7.23-3.15-4.11-2.99-20.9 1.72-23.7 6.24-3.74 15.3-3.34 22.2-4.68 18.6-3.58 37.3-6.75 56-9.89 65.8-11 132-23 197-36 33-6.59 69.1-16.6 103-18.1zm-377 4 1.33 1.33zm485 0c14.9 2.68 33.4 24.3 30.7 40-7.51-5.03-11.3-15.1-17.2-21.9-5.51-6.28-12.8-9.13-13.4-18.1zm0 14.7 18.7 14.7v2.67l-1.33 1.33c-7.92-2.93-15.9-10.1-17.3-18.7zm-525 2.78c1.88-0.0235 3.88 0.583 6.4 1.22l1.33 2.67v1.33l-13.3-2.67c1.98-1.88 3.72-2.53 5.6-2.55zm-10.9 7.89 1.33 1.33-1.33 5.33-5.33-1.33zm6.67 0c11.6 2.41 25 6.38 29.3 18.7h-1.33zm0 8 22.7 12c-6.57-1.43-22.8-4.46-22.7-12zm528 2.14c12.6 0.194 27.3 13.2 38.8 16.5-2.33 7.95-10.6 11.1-17.3 15.1-14.8 8.91-29.1 18.6-44 27.2-33.4 19.1-65.5 40.8-98.7 60.4-11.2 6.58-27.1 21.6-40 23.3-10.8 1.4-28.5-11.3-38.7-15.3 4.28-13.4 33.8-25 45.3-32.5 37.4-24.2 74.5-50.1 113-72 11.3-6.32 25.7-20.9 38.7-22.6 0.818-0.108 1.65-0.152 2.49-0.139zm-534 0.527v5.33l-5.33-1.33zm5.33 8c11.3 0.243 32.8 8.58 30.7 22.7-7.59-4.96-30-14.5-30.7-22.7zm-9.33 1.33h4v8h-4zm12 10.7c9.23 2.42 17.1 5.56 21.3 14.7l-22.7-13.3zm-1.43 9.78c9.85-0.406 23.6 7.24 28.2 19.6 5.08 13.6-20.1 12.1-23.8 21.4-3.75 9.26 8.88 9.31 11.7-0.0723l5.33 8h1.33l1.33-14.7c4.79 0.911 7.28 5.39 1.33 6.67 3.33 12.6 0.854 17.5-6.67 28l-12-8c6.72 0.907 11.4-1.34 13.3-8-8.65 4.33-15.4 3.38-19-6.67-1.51-4.2-4.35-12.9 0.746-15.8 3.55-2.03 9.23 0.417 12.9 1.18l-6.67-12-1.33 5.33h-8l2.67-8-9.33 5.33c-6.42-15.2-0.791-21.9 7.9-22.2zm1.89 2.73c-2.14 0.137-4.13 1.19-5.79 3.49l6.67 4-6.67 5.33c14.7-1.85 16.1 6.64 28 10.7-0.834-7.45-12.9-24.1-22.2-23.5zm346 23.5c-10.4 1.66-12.8 31.9-5.33 37.3zm-37.6 2.47c-5.97-0.0463-12.3 4.52-13 10.9 2.91-0.667 5.24-1.71 8-2.83 17.3-6.99 2.87 16.5-1.19 21.1-1.36 1.54-4 3.97-2.57 6.28 1.99 3.22 7.75 0.433 10.4-0.0605 7.15-1.32 17.1 2.15 18.7-7.17l-17.3 1.33c3.19-7.39 10.4-15.3 6.08-23.9-2.01-3.96-5.45-5.65-9.04-5.67zm-320 4.2 14.7 26.7-2.67 6.67c-8.05-6.9-18-22.8-12-33.3zm236 0-94.7 18.7v4c23.9-0.065 49.9-8.06 73.3-12.9 6.45-1.33 21.5-1.55 21.3-9.78zm-187 6.67 33.3 11.7 272 110c-12.9 26.9-57-1.41-76-8.77-58.4-22.6-116-47.2-175-69.3-12.9-4.89-25.9-10-38.7-15.3-4.32-1.79-11.8-3.49-14.6-7.45-3.35-4.69-1.37-14.9-1.37-20.5zm207 16 1.33 36-1.37 13.8-20-5.52-44-17.6-17.3-10.7zm-256 4c6.48 6.13 21.3 15.4 22.7 24l-16-6.67 16 12v6.67c-14-5.62-29.2-19.3-22.7-36zm40 1.33c-0.04 9.43-2.13 13.1-12 13.3zm9.33 6.67c29.9 5.08 61.2 22.8 89.3 34.1 63.5 25.4 127 50 191 75.3v2.67c-4.75 3.22-10.1 8.13-16 8.74-14.7 1.5-36.9-13.3-50.7-18.3-53.3-19.2-105-42.2-159-60.9-12.6-4.42-24.8-10-37.3-14.4-4.95-1.74-12.9-2.91-16-7.65-3.11-4.81-1.37-14-1.37-19.5zm455 9.33c-10.1 2.63-30.4 16.4-33.3 26.7l23.7-0.508 8.25 9.84c0.08-7.19 1.36-10.2 8-13.3v-1.33c-10.1-4.71-7.43-11.8-6.67-21.3zm-465 1.33-4 13.3 5.33-1.33c-1.47 6.88-5.44 7.84-12 8l-1.33-18.7zm-40 5.33c7.03 7.94 24.9 14 24 25.3-8.39-4.29-25.6-13.9-24-25.3zm499 5.33v8l-13.3 1.33zm-292 4 4 1.33v1.33zm-207 1.33c3.05 3.85 5.84 8.24 9.56 11.5 3.11 2.69 6.84 3.82 10.4 5.73 2.85 1.54 10.5 11.5 2.52 11-8.4-0.496-28.2-19.9-22.5-28.2zm50.7 0c35.9 7.66 72.5 26.7 107 40.1 58.7 23 120 42.4 177 67.9-2.49 4.68-7.57 8.82-13.3 8.19-7.81-0.856-15.1-6.39-22.3-9.1-11.6-4.34-23.5-7.69-35.1-12.4-44.4-18.2-89.8-34.3-135-51.2-26-9.79-51.6-23.9-78.7-30.1zm279 6.67-1.33 34.7-33.3-12c4.95-9.52 24.5-19.7 34.7-22.7zm-288 1.33-1.33 6.67-10.7 1.33v-6.67zm191 4h6.67v1.33zm-231 5.33 9.33 10.7-12-9.33zm-1.33 1.33 1.33 1.33zm50.7 0 85.3 32.4 93.3 35.5 58.7 22.7v2.67c-9.85 5.95-23 18-34.7 19.2-15.7 1.7-38.5-13.3-53.3-18.3-50.6-16.8-101-36.4-151-57zm-10.7 1.33c-0.507 6.33-3.12 8.49-9.33 9.33 0.227-6.96 2.4-8.95 9.33-9.33zm-211 1.93c-0.83-0.0235-1.69 0.0368-2.59 0.189-15.6 2.65-18.1 42.2 2.67 38.8 19.8-3.24 16.8-38.5-0.078-39zm171 4.74c11.6 11 24.4 16.7 40 14.7-7.25 13.2-21.7 5.25-30.8-1.11-4.83-3.38-11.3-6.88-9.21-13.6zm-171 2.09c5.87-0.116 9.46 7.11 1.96 9.12-7 1.89-11.6-6.64-3.84-8.84 0.646-0.183 1.28-0.273 1.88-0.285zm198 5.91v2.67h-2.67zm-196 9.39c6.41 0.0687 9.78 7.1 1.41 10.6-8.81 3.68-14.4-6.23-5.23-9.85 1.34-0.531 2.63-0.757 3.82-0.744zm166 4.11c13.9 0.4 31 12.9 43.8 15.8-2.37 7.71-11.2 11.2-17.3 15.9-8.45 6.43-21.2 18.2-32 19.7-13 1.8-34.5-10.9-46.7-15.6v-4c15.7-7.42 31-28.5 48-31.5 1.36-0.241 2.77-0.328 4.21-0.287zm53.1 14.5c16.4 1.63 33.9 11.6 49.3 17.3 36.5 13.4 72.7 27.7 109 40.9 18.7 6.73 44 9.66 44 32.5-15-2.58-29.7-10.7-44-15.8-38.4-13.7-76.3-28.8-115-42.8-11.8-4.31-46.7-11.6-50.7-24.1zm-136 2.67c0 8.09 2.28 20.2-0.986 27.8-2.88 6.61-13.2 11.3-18.9 15.2-15.9 10.7-33.4 29.6-52.1 34.4 0-22.5 2.2-37.2 26.7-45.3l5.33 13.3c7.41-0.241 10.3-2.66 13.3-9.33l-13.7-5.41 8.33-10zm10.6 0.818c10.3 0.017 6.09 14.6 12.3 19.4 9.96 7.69 41.9 21.3 54.5 20.1 4.29-0.399 8.23-3.79 12-5.66 1.35 4.57 4.03 19.3-0.801 22.5-4.37 2.89-14.9-3.29-19.2-4.92-14.6-5.56-29.4-10.8-44-16.5-5.29-2.05-13.7-3.46-17.9-7.54-3.72-3.69-4.65-26.8 2.05-27.3 0.363-0.0307 0.711-0.0455 1.04-0.0449zm436 9.85c0 9.63 2.76 24.2-0.799 33.2-4.99 12.6-23.4 18.8-33.6 25.7-2.83 1.9-4.65 6.92-0.092 8.12 5.08 1.33 8.31-4.9 11.1-7.95 6.05-6.74 14.5-15.3 23.4-17.7 0 19.1 9.75 54.4-14.7 60-1.77-8.94-10.5-18.5-21.1-16.6-5.49 0.957-12.8 8.21-17.6 11.2-12.6 7.89-26 14.5-38.7 22.3-6.93 4.29-28.5 11.9-31.4 19.3-3.48 8.86 5.4 20.2-3.56 28.1-14.2 12.5-35.4 20.6-51.7 30.2-27.7 16.3-57.5 39.3-88 49.5v-58.7c0-7.37-2.01-18.3 0.801-25.2 7.23-17.7 33.5-18.6 47.2-12.1l-1.33 6.67 30.7-14.7c-2.81-6.65-5.49-20.9-1.29-27.5 3.44-5.42 13.1-9.21 18.6-12.2 17.1-9.34 24.9-16.8 44-8.31v2.67l-6.67 5.33c8.97 0.784 29.5-8.81 31.5-18.8 1.39-6.96-2.83-14.1 0.975-21 4.23-7.65 30.9-24.7 39.6-24.7 6.11-0.029 13.3 4.57 18.7 7.12l-4 6.67 1.33 1.33c6.11-3.84 10.5-5.42 17.3-2.67l-1.33-6.67c4.04-2.08 9.93-3.6 12-8.08 1.87-4.03-0.679-10.2-0.652-14.6 0.053-11.7 8.28-18 19.3-20zm12 2.67c6.41 1.29 10.2 4.31 12 10.7zm-333 1.12c13 0.424 28.9 10.5 39.6 14.5 40.5 15 80.8 30.5 121 45.5 14.7 5.43 40 10 50.7 21.6-17.5 9.53-44.8-6.15-62.7-13.1-54.2-21-111-38-164-61.6 3.92-5.27 9.22-7.07 15.1-6.88zm333 6.87h1.33l5.33 8c-4.49-1.1-8.37-2.91-6.67-8zm26.7 1.33c7.64 6.51 17.4 15.8 14.7 26.7-5.75-4.89-19.7-19.3-14.7-26.7zm-62.7 1.34v13.3l-13.3-4v-4zm-317 1.99c11.8-0.439 32.7 11 39.9 13.6 48 16.7 102 31.3 147 55.1v2.67c-11 7.28-30.6 23-44 23.5-10.7 0.335-23.4-7.31-33.3-10.8-26.8-9.38-53.5-18.8-80-28.9-10.7-4.06-28.3-6.37-36.8-14.2-5.05-4.63-3.07-31.5 0.213-37.3 1.4-2.45 4-3.51 7.31-3.63zm-104 10c1.19 9.36 4.77 26.3-0.801 34.6-5.11 7.63-16 11.8-23.2 17.1-5.23 3.85-14.4 12.7-21.2 12.6-6.27-0.023-14.8-13.4-21.5-16.4 3.59-7.07 11-10.8 17.3-15.2 15-10.6 31.8-27.2 49.3-32.8zm5.33 0c22.2 1.15 55 16.3 74.7 26.7l-18.7 26.7-40-13.1-13.9-7.45zm455 0 9.33 8c-5.63 0.085-7.84-2.72-9.33-8zm48 5.33h4c5.59 12.8 14.8 24 21.8 36 18.6 32.1 38.1 63.7 56.5 96 6.13 10.7 13.4 21 18.9 32 1.76 3.5 5.19 8.76 2.71 12.7-3.48 5.5-12.3 6.47-16.5 1.8-9.32-10.4-14.5-25-22.2-36.6-12.2-18.2-21.7-38.1-33.5-56.6-10.1-15.8-25.8-35.1-30.8-53.3-2.69-9.86-0.959-21.8-0.959-32zm-53.3 1.33c6.71 3.21 11.9 8.24 10.7 16-8.31-1.98-13-7.44-10.7-16zm20 5.33 13.3 24-17.3-22.7zm-680 2.59c-10.4-0.202-24.2 7.43-17.1 18.1 6.74 10.2 19.7-2.27 20.9-9.92 1.93 1.77 2.85 4.48 1.67 7.94-3.32 9.65-16.2 8.85-19 17.3 15 2.34 39.3-21.5 19.9-32-1.74-0.941-3.96-1.4-6.36-1.45zm733 2.75 2.67 9.33h-1.33zm-736 3.02c2.39 0.0514 4.69 0.87 6.31 2.33-2.99 0.874-4.64 1.95-7.19 3.8-3.63 2.65-12.2 2.77-6.77-3.06 2.01-2.17 4.88-3.13 7.65-3.07zm677 2.31c15.4 10.9 27.6 38.5 28 57.3-10.6-6.59-16.9-31.7-24-42.7-3.13-4.8-6.25-8.97-3.96-14.7zm-9.33 2.67 1.33 9.33h-5.33l-1.33-8zm-375 9.02c8.33-0.111 18.7 4.66 25.5 7.49 34.7 14.4 71.2 26 107 38.3 15.6 5.41 34.2 7.72 30.7 27.9l-40-13.1-136-48.3c1.42-9.19 6.68-12.2 13.2-12.3zm378 0.316c12.4 3.82 23.1 30.7 25.3 42.7-8.88-7.73-23-31.1-25.3-42.7zm-456 6.67c12.8 1.29 25.2 8.64 37.3 12.9 4.67 1.63 11.8 2.98 14.6 7.49 3.23 5.2 1.37 15.1 1.37 21 0 24-6.77 44.3-18 65.3-18.7 34.9-60 58.6-92.6 78.6-10.2 6.23-24 19.2-36 20.6-13.7 1.6-37.2-9.17-49.3-15.3 10-11.8 28.4-19.6 41.3-28.1 39.5-25.8 84.2-53.3 99-101 5.77-18.7 2.36-41.9 2.36-61.3zm-5.33 1.33c0 18.1 2.52 38.3-1.79 56-10.8 44.4-50.1 69.1-84.9 93.2-15.5 10.7-36.3 29.2-54.7 33.5l-2.13-13.9-14.4-8.96-0.84-51.8c17.9 1.4 31.1-12.2 45.3-22.1 17.7-12.3 37.6-23.3 53.3-38.1 17.3-16.4 34.4-42.7 60.1-47.8zm460 2.67c8.17 6.95 14.8 18.9 17.3 29.3-5.6-3.01-19.2-23.4-17.3-29.3zm34.7 4 1.33 9.33h-1.33zm-428 1.33 66.7 23.3 111 39.3v2.67c-13.1 8.52-25.2-0.594-38.7-4.56-34.6-10.2-68.9-24.3-103-37-11-4.13-41.9-7.94-36-23.7zm441 0c26 29.8 44.7 72.4 64.6 107 5.13 8.86 11.1 17.5 15.6 26.7 1.09 2.25 3.83 8.44-0.547 9.25-7.2 1.33-19.5-25-22.6-30.6-14.6-25.5-29.3-51.2-45-76-6.6-10.4-17.4-22.9-11.9-36zm-52 1.33 10.7 17.3-1.33 1.33c-6.63-3.43-12.5-11.1-9.33-18.7zm90.7 0 5.33 12h-1.33zm-619 0.482c18.1 0.133 17.7 18.4 12.6 29.8-4.65 10.4-21.8 19.7-31.3 25.1-11.4 6.49-32.3-6.29-44-10.1v-4c14.8-7.87 29.4-18.5 42.7-28.7 5.33-4.09 12.8-12.2 20-12.2zm688 0.852v69.3c0 7.6 3.03 20.6-5.33 24l-27.9-45.3-12.3-21.3 9.56-9.68zm20 8-10.7 9.33c2.53-5.19 4.91-8.12 10.7-9.33zm121 0.92c-9.58 0.0234-11.7 7.4-12.7 20.4 5.12-0.732 10.8-5.25 15.9-3.89 8.93 2.36 5.23 13.4-1.33 16.1-5.85 2.42-12.4-1.49-18.6-0.182 12.5 22.2 49.1-11.8 22.7-20.6-3.36-1.11-7.19-0.749-10.7-0.752l14.7-9.33c-4-1.18-7.27-1.75-9.96-1.75zm-107 2.66c1.4 0.0349 2.96 0.217 4.67 0.418-1.59 5.45-6.77 6.25-12 6.67 0.48-5.97 3.14-7.19 7.33-7.08zm-586 1.75 57.3 19.3 77.3 28.7-30.7 22.7c5.39 3.49 4 10.1 4 16v44c0 4.57 2.04 15.5-4.2 16.8-10 2.03-28.9-8.52-38.5-11.9-30.6-11-64-27.2-96-32.8 2.04-13.2 16.2-27.2 21.7-40 8.79-20.5 8.93-40.8 8.93-62.7zm347 0c17.1 0.792 6.13 14.4 17.4 20.3 15 7.9 34.1 15.3 50.6 19.5 4.88 1.24 11.4-4.43 15.2-2.25 4.24 2.45 0.587 16-0.52 19.8l-58.7-22.1-21.3-9.29zm-5.33 2.67-1.32 25.1-20 13.9-56 30.4c-2.32-6.34-4.28-18.9-0.158-24.9 4.41-6.37 14.9-9.9 21.5-13.6 17.6-9.89 36.3-25.8 56-30.9zm235 0c0.307 8.33-7.67 12-14.7 14.7 2.29-7.71 6.59-13 14.7-14.7zm24.5 3.77c0.966 0.0149 1.73 0.0894 2.2 0.227l-1.33 6.67c-4.11 0.087-13.1 3.49-16.5 1.18-7.7-5.32 8.89-8.17 15.6-8.07zm-215 0.682 48 16.9v5.33c-19.3 5.55-26.6 1.91-45.3-4.66-6.79-2.38-16.2-3.85-18.7-11.3zm58.7 3.54h1.33c20.8 31.4 38 65.4 58 97.3 5.07 8.09 9.04 17.1 14.4 25 3.21 4.74 9.96 11.6 10.4 17.5 0.44 5.73-10.7 8.45-14.8 9.51-14.3-24.6-29.1-48.9-43.6-73.3-7.4-12.5-14.1-29.7-25.7-38.7 5.15 22.4 25.8 46.9 37.6 66.7 3.71 6.22 12.1 15.2 12.7 22.5 0.427 4.75-5.6 6.75-9 8.47-7.35 3.71-30.4 20.1-38.1 15.6-4.11-2.4-6.88-9.31-9.25-13.3-6.44-10.7-13-21.3-19.5-32-4.07-6.69-6.15-13-14.4-14.7 0-11.7 3.84-24.8 14.7-31.3 5.05-3.03 13.9-2.06 17-7.57 3.25-5.78 0.507-17.2 0.867-23.8 0.32-6.13 4.73-9.3 6.03-14.8 1.05-4.51-0.494-8.8 1.36-13.2zm-663 0.572c10.4 0.411 6.1 15 13.5 21.2 10.1 8.36 26.8 9.49 38.4 15.6v1.33c-13.1 7.31-28.3-1.74-41.3-6.38-4.73-1.69-11.8-2.54-14.6-7.26-3.41-5.79-0.602-17-1.38-23.7 2.16-0.588 3.95-0.82 5.44-0.762zm-10.8 2.09c2.03 6.85 3.35 19.8-0.428 26.2-10.3 17.5-41.2 30.8-56.9 13.8l32-20 1.33 13.3c11.7-6.21 1.47-9.14 4.35-17.4 2.28-6.55 13.8-12.9 19.7-16zm808 1.06c0.8 0.0211 1.63 0.109 2.5 0.27l-21.3 24c2.62-9.84 6.83-24.6 18.8-24.3zm-78.8 2.05 0.441 0.445c-0.653 0.219-1.47-0.445-0.441-0.445zm101 0.889c-0.28 8.54-4.51 9.6-12 12-4.43-9.83 3.59-11.9 12-12zm-16 6.67-14.7 25.3-9.29 18.7c-2.67-15.8 6.15-41.3 24-44zm16 6.67v9.33c-12.9 3-11.5-7.59 0-9.33zm-1045 2.67c-26 0.552-54.5 10.3-80 15.7v5.46c10.6-2.37 21.3-4.72 32-6.63 4.35-0.771 13.9-5.14 17.7-1.63 5.24 4.92-1.03 16.1-4.95 19.8-11.4 10.7-30.8 8.74-44.7 14v2.67c14.4 3.11 45.1-4.37 53.1-17.3 3.85-6.25 0.411-15.4 5-20.8 5.88-6.81 18.5-1.61 21.9-11.2zm795 0 72 26.7c-2.79 4.25-16.9 17.7-21.5 18.9-6.41 1.62-16.7-5.06-22.5-7.38-20.7-8.27-35.8-11.9-28-38.2zm-9.33 1.33c7.67 25.9-9.68 31.4-29.3 42.7-5.84 3.34-16.9 11.9-23.8 11.3-5.48-0.468-12.8-8.33-17.6-11.3v-2.67zm172 0 5.33 13.3c-4.43-2.9-7.87-8.31-5.33-13.3zm74.7 2.67c1.8 8.72-13.7 35.2-21.3 40 0.573-13.1 7.25-36 21.3-40zm-148 5.33v4h4v-4zm163 1.33-22.7 37.3c-7.32-2.44-4.03-9.11-1.51-14.7 4.24-9.34 13.8-20.6 24.2-22.7zm-824 1.33 38.7 12v2.67c-6.64 4.52-26 23.8-34.2 18.6-5.88-3.67-4.13-26.6-4.43-33.3zm-5.33 1.33 1.33 28-29.3-8v-2.67zm101 4.06c-1.49 0.024-3.2 0.348-5.12 1.03-14.5 5.16-19.9 37.2 0 31.1 14.6-4.53 19.6-32.3 5.12-32.1zm-178 5.27c18.2 2.69 37.3 11.6 54.7 17.7 5.97 2.12 15.9 3.28 20.2 8.32 3.11 3.65 2.47 9.49 2.48 13.9 0.013 11.7 3.81 32-2.85 42.2-3.31 5.07-10.3 6.32-13.5 11.4-2.67 4.27 1.57 13.9-4.12 16.2-6.71 2.65-23.2-13.2-27.2-17.9-6.45-7.75-8.15-21.1-10.9-30.5-5.73-19.4-17.9-41.1-18.8-61.3zm177 0.656c12-0.635 2.24 21.4-7.75 20.9-10.1-0.524-0.814-20.5 7.75-20.9zm-183 0.678c4.43 21.4 13.8 41.7 19.8 62.7 1.61 5.58 7.87 17.7 4.13 23.1-4.83 7.03-26.5 9.7-34.6 11.5l-22.7-65.3c6.39 0 14.7 2.81 20.5 2.08 3.97-0.491 6.41-6.57 1.8-8.16-7.11-2.46-18.3 7.03-25.2-0.0605-15.3-15.6 26.7-24.6 36.2-25.9zm911 1.33c-0.267 8.39-7.73 22.5-16 25.3 1.39-10.3 4.97-22.2 16-25.3zm-73.3 1.33 2.67 9.33h-1.33zm-685 2.67v33.3h5.33v-33.3zm500 4c11.3 38.1-5.63 85.9-36 110-9.01 7.11-17.7 14.8-29.3 16.9 0.213-12.6-2.75-12.3-13.3-17-2.84-1.28-6.04-4.41-9.33-2.99-18.7 8.17-36.6 22-54.7 31.9-9.72 5.29-17.9 11.5-29.3 9.44l-5.33 12 5.33 1.33-1.37 25-14.6 9.17-40 20.5c-4.92-16.6-1.33-38.7-1.33-56 0-6.05-1.69-15.5 1.75-20.9 2.8-4.35 12.4-3.84 16.9-6.24 14.4-7.68 28.6-16 42.7-24.3 31.2-18.5 67.1-32.7 96-54.7 9.4-7.15 11.5-17.6 19.2-25 11.7-11.2 37.3-24.4 52.8-28.8zm8 0c11.4 3.11 22.4 8.16 33.3 12.5 4.05 1.62 10.7 3.01 13.3 6.8 4.25 6.16 1.39 21.4 1.37 28.7-0.067 33.2-23.9 65-49.3 84-7.52 5.61-15.7 13.1-25.3 14.8-10.8 1.83-30.2-8.88-40-13.4v-2.67c29.3-16.7 60.1-43 65.7-78.7 2.6-16.8-3.89-35.4 1.01-52zm-309 1.71c-7.26 0.124-13.4 1.46-12.7 6.29 2.68-0.141 5.32-0.0684 8-0.119 23.6-0.447-0.253 18.6 4 33.5 8.04-4.42 17.5-29.6 20-38.7-3.71 0-12.1-1.08-19.3-0.961zm-487 3.63-2.67 32c10.6-1.84 7.7-24 5.33-32zm21.3 0-1.33 30.7 6.67-1.33-2.67-29.3zm1023 4h2.67c-0.333 6.44-1.72 13.1-9.33 12zm-342 4.06c17 0.0621 31.8 13.3 19.2 29.3-16.5 21-49.1 30.7-71.5 44.3-11.1 6.72-25.8 18.3-38.7 20.6-9.6 1.76-42.3-8.76-45.3-18.3 20.8-9.74 41.8-22.7 61.3-34.9 12.7-7.85 25.7-15.1 38.7-22.5 9.73-5.57 23.1-18 34.7-18.6 0.551-0.0257 1.1-0.0372 1.65-0.0352zm-607 13.3h2.67c8.79 22.1 22.7 48 22.7 72-5.43-3.32-6.29-10.3-8.53-16-5.59-14.3-19.4-41-16.8-56zm904 8 2.67 9.33-6.67-8zm-148 4c5.89 4.77 9.03 12.3 13.1 18.7 11.1 17.3 31.9 42.5 25.6 64-15.6-15.4-19.8-45.7-38.7-57.3l36 68-16 5.33-29.2-50.7 6-18.7zm157 1.33c9.61 0.984 23.2 5.15 24 16-11.4-0.997-20.4-4.54-24-16zm-596 0.387c10.5-0.0767 25.3 8.33 34.2 11.5 21.6 7.82 43.5 15.5 65.3 22.5 12.1 3.85 28.8 6.93 38.7 14.9-19 8.04-43.7 8.93-64 12.3-39.1 6.52-78.2 13.6-117 20-14.2 2.32-28.4 4.69-42.7 6.72-3.79 0.533-11.5 3.75-13.9-0.826-2.53-4.99-1.44-15.9 2.44-19.9 13.9-14.1 37.6-24.3 54.1-35.7 9.25-6.38 18.2-13.2 26.7-20.5 3.99-3.46 7.96-9.6 13.4-10.7 0.98-0.205 2.02-0.305 3.1-0.312zm-322 4.98c6.54 0.386 11.9 25.6 12.3 30.6-11.6-3.76-16-5.88-16-18.7 0-2.97-1.23-11.1 3.03-11.9 0.213-0.0407 0.426-0.0554 0.637-0.043zm-9 1.29-0.293 22.4-13 10.6-37.3 24.3c-4.21-7.48-15.8-1.19-16.8-6.85-1.16-6.76 9.64-11.9 14.1-15.1 16.7-11.9 34.5-27.3 53.3-35.4zm670 3.71c-7.9 0.137-17.2 5.76-20.7 12.3l12-4-6.67 13.3c3.57-0.68 8.29-3.56 11.9-2.83 6.53 1.33 3.27 8.8-0.08 11.6-4.33 3.6-9.37 2.3-14.5 1.92 9.28 18.4 41.1-10.1 16-20l5.33-12c-1.05-0.218-2.15-0.309-3.28-0.289zm243 5.18c1.19 0.0337 2.49 0.177 3.91 0.441l-1.33 61.3-1.37 23.1-17.3 8.85-3.47-14-20.5-7.31-16 8.51-53.3 25.6-25.3 1.88 10.7 2.67c-9.25 11.7 2.19 29.6-8.31 39.4-12 11.3-58.4 29.7-73.1 37-3.43 1.97-3.94 0.307-7.66 7.45l94.6-44.9c4.95 12.7 43.5 15.6 14.9 38.1l-157 67.2c-2.97 0.688-5.9 1.28-2.4-5.62 4.8-9.48 23.5-37.2 27.3-42.5 7.61-10.5 24.4-8.23 21.6-14.9l-20 8c0.147-6.83 2.31-13.2 2.61-20 0.787-17.2-5.08-49.7 17.4-56 7.19 12.8 18.4-2.04 29.3 0 3.81-10.2-2.32-22.8 2.71-31.9 4.64-8.37 24.8-15.4 33.3-19.8 3.28-1.69 7.83-4.63 11.6-2.84 6.4 3.05 9.25 13.6 11.1 19.8 6.68-3.12 21.5-7.73 25.7-13.7 5.31-7.52-2.56-20.5 2.29-28.7 3.41-5.79 14.1-9.37 20-12.3 18.3-9.29 36.3-17.9 38.7 10.7 10-3.76 16.7-11.2 28-9.33 0.737-12.7-5.81-36.9 12.1-36.4zm317 0.74c2.97-0.128 5.84 0.982 7.91 3.7l-14.7-1.33c2.08-1.42 4.45-2.27 6.75-2.37zm-98.8 1.48c1.03 0 0.214 0.664-0.439 0.445zm43.2 0.736c2.22 0.116 4.07 1.69 6.14 4.15h-9.33l-1.33-2.67c1.72-1.1 3.19-1.56 4.52-1.49zm-85.9 0.152 1.33 4c-4.79 1.31-8.83 1.49-12-2.67zm18.7 0h21.3v1.33c-7.45 0.971-16 6.93-21.3-1.33zm40 0v4l-10.7-2.67zm73.3 0v1.33l-6.67 2.67zm-24 0.855c0.813 1.7e-4 1.63 0.604 2.67 1.81h-5.33c1.04-1.21 1.85-1.81 2.67-1.81zm-556 0.479c-1.99 8.35-5.56 35.5 4 38.7 0-9.11 6.49-35.2-4-38.7zm288 0c6.53-0.148 14.3 1.96 14.7 9.33zm273 0h4v1.33h-5.33zm-144 0.445c2.68-0.0898 5.38 0.807 8.32 2.22v1.33l-14.7-1.33c2.18-1.48 4.26-2.15 6.34-2.22zm-40 1.5c2.06-0.0449 3.95 1.03 5.62 3.39l-10.7-1.33c1.76-1.31 3.45-2.02 5.05-2.05zm-22.4 1.8c1.46-9e-3 2.69 0.893 4.03 2.91l-8-1.33c1.56-1.02 2.84-1.57 3.97-1.58zm-100 0.248v12c-6.67-3.37-8.49-10.1 0-12zm30.7 1.33c7.25 2.26 13.4 5.35 14.7 13.3-7.24-1.4-13.4-4.86-16-12zm21.3 4c7.35 1.91 12.5 6.67 16 13.3-7.67 0.187-14.5-5.91-16-13.3zm-938 8.77c10.5-0.0756 23 8.32 18.8 20.2-2.59 7.27-15 10.8-21.7 11l-1.33-30.7c1.35-0.371 2.81-0.554 4.3-0.564zm917 0.305c6.16-0.0125 10.9 4.09 10.6 10.9-5.93-2.16-11-4.56-13.3-10.7 0.93-0.174 1.84-0.258 2.72-0.26zm-784 0.26c10.8 2.84 12.3 11.4 9.33 21.3 16.5 6.51 40.7 19.9 58.7 19.6 5.12-0.107 9.64-3.89 14.7-4.89v20c-20.2-1.76-41.9-12.2-61.3-18.1-5.81-1.77-17.7-3.76-21.3-9.11-4-6.03-1.99-22.2-0.0391-28.8zm801 0c11 2.85 22.1 13.5 18.7 25.3h-1.33zm-947 1.09c1.09-0.0423 2.06 0.282 2.81 1.12 2.48 2.76 1.37 9.07 1.37 12.5 0 18.8-16.5 24.4-30.7 34-4.5 3.05-10.4 8.84-16 9.59-6.14 0.813-12.8-10.3-18.7-12.9 4.15-14 34.7-27.3 46.7-35.2 2.67-1.76 9.76-8.82 14.5-9.01zm139 0.246-1.37 29.3-20 15.1-50.7 31.6v-14.7c15.8-0.147 32.5-14.4 45.3-23.1 4.45-3.01 10.4-5.89 13.4-10.5 6.91-10.7-3-22.9 13.3-27.8zm1071 0-5.33 8 20-8 4 16c-13.9 5.76-32 1.99-46.7 1.57-11.4-0.333-23.2 1.09-34.7 1.09-56.8 0-114 2.67-171 2.67v-16zm-1128 2.87c1.74-0.0291 3.36 0.15 4.79 0.596 6.08 1.89 12.2 9.01 17.6 12.5-2.11 6.49-8.77 7.35-14.7 9.59-16.6 6.32-28.6 4.4-37.3-13.6 7.23-2.77 20.2-8.97 29.6-9.13zm-226 1.5c-0.832 0.024-1.69 0.145-2.57 0.371-14.1 3.63-10.1 13.7-9.76 24 0.345 12.2-0.918 25.2 17.8 19.8 17.9-5.15 11.5-44.7-5.43-44.2zm1073 4.96h4l4 9.33c-5.29-1.53-7.16-3.92-8-9.33zm13.3 0c13.8 3.88 23.7 22.4 24 36h-1.33l-9.77-18.6zm-1086 0.531c7.67-0.297 7.39 11.6-0.379 13.5-9.91 2.43-9.48-11.4-1.26-13.3 0.582-0.135 1.13-0.209 1.64-0.229zm1334 2.13-6.67 4zm-433 2.67c4.93 1.57 6.68 4.97 9.28 9.33 2.33 3.91 7.47 9.49 5.84 14.4-1.33 4.04-6.41 5.71-9.79 7.56-8.08 4.44-20.9 14.8-30.5 14.4-3.87-0.16-6.43-4.55-5.52-8.16 1.12-4.49 6.89-7.95 9.95-11.1 7.75-8.04 15.8-16.4 20.8-26.4zm-289 1.01c3.44-6e-3 6.81 0.17 10.1 0.568 14 1.71 31.2 9.79 44 15.8-6.57 7.68-20.9 15.3-30.7 18-4.68 1.27-12.8-1.15-15.7 3.76-6.77 11.3 6.27 39.4-4.72 47.4-11.3 8.2-37.8 7.96-51.6 10.6-4.57 0.88-12.4 3.81-16.9 2.01-6.99-2.8 0.934-15.6-7.29-17.7-7.73-1.95-20.1 2.75-27.8 4.21-18.7 3.55-39.1 4.11-57.3 9.59-5.12 1.53-15.9 5.96-19 10.5-3.96 5.96 1.16 13.1-7.75 16.3-26.4 9.29-57.9 9.95-85.3 15.1-42.3 7.97-89 22.8-132 22.9 1.04-3.23 7-14.6-1.32-13.4-8.23 1.12-1.39 9.83-4.12 13.8-7.49 10.8-27.1 1.96-34.6-3.01v-2.67c35.1-9.96 66.5-28.9 90.9-56 10.4-11.6 22.3-26.9 25.1-42.7l62.7 16c2.52-14 11.7-17.1 22.6-23.3 3.71-2.08 5.83-6.23 9.67-7.96 12.5-5.65 31.5-5.91 45.1-8.01 37.3-5.8 74.8-12 112-18.7 22.7-4.1 49.9-13.1 73.9-13.1zm-422 2.99c13.1 5.99 19.9 15.4 16 29.3-12.5-4.32-21.4-16.6-16-29.3zm893 1.33c14.2 3.99 32.4 35.4 24 49.3l-11.2-30.6zm221 2.65 44 0.0117 18.7 1.33c-21.2 9.92-46.5 6.67-69.3 6.67-40.5 0-80.8 1.33-121 1.33-12.3 0-25.1-1.07-37.3 0.387-7.52 0.88-16.4 2.6-21.3-4.39l46.7-2.89zm-1052 1.66c3.7-0.104 9.01 1.19 5.67 5.67-5.25 7.03-31.7 23.9-40.4 23.9-8.89-0.093-7.09-12.6-2.12-16.6 7.61-6.13 25.8-11.3 35.4-12.8 0.432-0.0667 0.927-0.11 1.46-0.125zm-73.5 1.02c4.21 21.7 28.6 25.3 23.8 50.6-1.44 7.64-11.4 11-17.2 15.2-17.9 13-55.1 31.1-77.3 20.1-10.8-5.37-15.3-40.1-6.27-48.3 10.7-9.71 24.9-17.2 36.9-25.3 7-4.71 11.4-0.96 18.7-2.63 7.89-1.81 13.3-8.55 21.3-9.76zm-96.3 1.37c1.5-0.0472 3.37 0.401 5.62 1.3l-10.7 6.67c0.179-5.36 1.74-7.86 5.04-7.97zm996 1.3c13.5 4.79 20.2 26.9 21.3 40-8.61-2.56-20.7-31.2-21.3-40zm-1074 1.28c1.57-7e-3 3.15 0.0566 4.68 0.0566-0.063 2.61 0.077 5.41-0.988 7.87-7.48 17.3-28.5-3.84-8.35-7.56 1.51-0.28 3.08-0.357 4.65-0.363zm758 5.39c10.1 34.1-22 42.7-46.7 55.7-5.99 3.16-20.7 15.1-27.6 12.7-4.01-1.4-3.09-7.8-3.09-11.1-0.027-15.6 5.76-17.9 18.7-25.1 7.97-4.49 16-8.79 24-13.3 11.3-6.43 22.5-14.4 34.7-18.9zm8 0 10.7 2.67 1.03 17.9 13.6 5.23 37.3 12.9-1.33 6.67 14.7 1.33v6.67c-18.6-1.63-38.3-11.9-56-17.8-5.47-1.83-16.3-3.28-19.8-8.24-4.08-5.81-2.13-20.9-0.24-27.3zm513 0v17.3l4 4c-44.2 3.49-90.1 1.33-135 1.33-10.1 0-49.3 4.31-34.2-17.9 2.17-3.19 8.28-2.12 11.6-2.13 9.81-0.027 19.5-1.33 29.3-1.33 40.9 0 83.4 3.09 124-1.33zm-996 2.67 21.3 4.12 53.3 17.2v1.33c-7.47 4.6-14.2 16.4-21.6 19.1-3.72 1.37-8.2-0.666-11.7-1.81-9.19-3.01-33.1-5.56-38.6-13.9-4.03-6.11-0.985-18.8-2.72-26.1zm-8.01 0.977c0.312 0.0137 0.617 0.0547 0.912 0.129 4.55 1.15 3.11 10.2 3.09 13.6-0.08 15.7-12.4 18.3-25.3 22.7 0.56-18-18.8 3.75-25.3 5.71-4.49 1.35-8.96-0.814-13.3-1.71 7.12-13.9 32.3-24 45.3-32.1 3.51-2.2 9.98-8.44 14.7-8.24zm801 9.69 4 12h-1.33zm-9.33 4 6.67 8c-4.76-1.39-6.45-3-6.67-8zm-44.4 1.85c6.13 0.42 8.42 18.8 8.42 22.2l54.7 18.5 14.7-2.51v21.3c-17.6-3.03-35.2-11.8-52-17.7-8.59-3.04-20.3-5.2-27.8-10.4-5.36-3.68-7.08-23.3-2.83-28.4 1.84-2.22 3.46-3.08 4.88-2.98zm-164 2.15c5.79 10.3 12.8 28.7-5.33 24l8 14.7-17.3 8-1.33-5.33 9.33-14.7c-7.44-10.3-4.37-21 6.67-26.7zm152 1.33-1.57 25.2-22.4 13.6-56 26.6c-1.47-7.51-3.35-30.7 8-30.2 6.77 0.28 11.7 8.57 17.5 8.47 3.24-0.053 8.37-5.37 5.28-8.44-4.4-4.37-11.8 1.91-17.4-4.45 18.9-11 45.1-26.8 66.7-30.7zm260 1.33c-4.12 12.4-27 8-37.3 8-28.1 0-55.9 1.33-84 1.33-11.6 0-26.8 2.43-37.3-2.67 9.01-8.44 32.2-4 44-4 37.2 0 78 3.93 115-2.67zm-367 5.28c-1.67 5e-3 -3.62 0.25-5.89 0.775-15.5 3.57-10.7 13.6-11 24.6-0.36 11-5.45 24.3 13.7 20.7 17.3-3.32 11.1-13.6 12.1-24.7 0.828-9.71 2.82-21.4-8.86-21.4zm158 3.95c13.7-0.0231 27.7 7.61 40.2 13.4v2.67c-18.4 9.79-38.1-2.43-56-9.33v-2.67c5.13-2.92 10.4-4.1 15.8-4.11zm-220 0.107v9.33l-8-4v-2.67zm59.7 0.783c10.6-0.372 8.31 14.1-1.07 15.8-12.2 2.32-10.1-14.6 0-15.8 0.369-0.0438 0.726-0.072 1.07-0.084zm-136 0.551 68 22.7v2.67c-5.65 4.93-12.2 20.8-17.9 23.1-5.32 2.08-14.3-3.08-19.4-4.6-7.73-2.31-23.3-4.43-28.5-10.9-5.65-6.96-2.75-24.6-2.13-32.9zm377 0.875c18.8-0.189 38.4 1.79 56.3 1.79l1.33 20c-23.3 2.11-47.3 1.29-70.7 1.33-4.36 0.013-20 2.4-21.7-3.04-1.15-3.75 5.92-17.4 9.75-18.1 8.03-1.37 16.4-1.9 25-1.99zm-385 1.79 1.29 30.2-12 8.05-36 16.4c-3-10.1-10.3-14.5-20-17.3l20-13.5zm97.3 0-4 1.33v1.33l5.33 1.33zm-581 1.33c-5.51 30.9-47.4 70.2-77.3 77.3 9.17-10.8 21.2-18.8 29.6-30.7 6.04-8.48 7.76-19.1 13.2-27.8 6.15-9.71 23.6-17 34.5-18.9zm-25.3 2.67c-3.59 5.91-10.4 10.1-17.3 9.33zm128 1.33v37.3h6.67l-4-37.3zm45.3 0c-8.61 0.173-27.4-0.787-32 6.67h18.7l-5.33 33.3h6.67c0-16.6 5.35-25.6 12-40zm-211 6.69c2.74 0.0248 5.51 0.432 8.31 1.31-10.4 12.8-32.6 21-46.7 29.8-5.81 3.61-13.1 9.91-20 10.9-7.12 1.05-17.3-3.72-24-6.01 7.4-6.09 19.2-7.08 28-10.7 17.1-6.96 35.1-25.5 54.4-25.3zm13.1 5.37c1.87 0.029 3.62 0.813 5.08 2.8 5.33 7.28-4.05 22.3-9.91 26.7-16.1 12.2-41 17.5-59.9 10.4 12.9-14.1 34.5-23 50.7-32.9 3.72-2.27 9.32-7.13 14.1-7.06zm679 1.18c7.51 0.306 8.24 10-0.873 13.6-12 4.71-15-8.56-3.97-12.7 1.84-0.685 3.46-0.951 4.85-0.895zm115 0.0937 56 19.1 20 10.2-25.5 19.3-35.9-11.7-12-5.52zm271 1.33c17.7 0.827 6.75 12.2 15.5 20.5 3.51 3.31 10.7 4.13 15.1 6.13 17 7.69 31.3 15.5 49.3 9.33l1.33 22.7c-18.9-1.27-41.1-15-58.7-21.9-6.43-2.52-17.2-4.13-21.1-10.5-3.97-6.43-1.57-19-1.57-26.3zm-281 0.893c1.1-0.0534 2.08 0.121 2.88 0.613 3.08 1.93 3.13 8.64 3.35 11.8 1.21 17.5-5.47 20.3-19.9 27.6-6.81 3.47-20 12.3-27.8 10.6-7.53-1.61-18.3-12.7-25.6-16.9v-2.67c17-8.92 34.4-17.2 52-25 3.21-1.41 10.2-5.91 15-6.15zm276 0.441-1.76 27.3-23.6 11.1-56 22.9c-0.547-7.24-2.75-21.1 1.37-27.5 3.43-5.31 14.4-7.57 20-10 18.1-8 40.2-22.1 60-23.8zm-124 3.26c10.7 0.025 21.4 0.742 31.6 0.742v1.33c-17.7 8.25-45 4.93-64 3.09-7.01-0.667-18.2 5.88-20-4.43l21.3 2.67c9.85-2.77 20.4-3.43 31.1-3.41zm-633 4.65c1.43 0.0354 2.79 0.291 4.02 0.891 5.17 2.52 4.45 21.1 0.774 24.9-4.08 4.15-13.6 3.95-19 4.99-7.51 1.45-15.1 2.75-22.7 3.83-12.3 1.75-25.2 3.93-37.3 6.84-2.09-6.63-5.47-19.9-1.29-26.3 3.04-4.64 12.3-4.8 17.3-5.64 15.1-2.55 30.2-4.84 45.3-7.17 3.76-0.58 8.61-2.46 12.9-2.36zm589 3.97c1.72 0.0526 3.62 1.14 5.76 3.77 3.63 4.48 1.32 16.2 1.37 21.7 0.213 17.9-1.76 38.5 1.33 56-7.91 2.27-16.2-0.652-24-2.51-7.39-1.76-21.4-2.92-27.2-8.05-3.56-3.19-1.72-10.6-1.79-14.8-0.227-13.7 7.49-28.5 19.6-36.1 3.67-2.31 8.33-2.28 11.8-4.84 3.19-2.36 6.94-15.3 13.1-15.1zm-504 1.45v37.3l52 14.3 34.7-15.6c-5.44 6.92-13.8 9.64-21.3 13.7-14.7 7.95-29.7 17.3-45.3 23.2-5.48 2.05-14-1.64-18.2 1.33-11.9 8.27 5.36 39-5.23 48.2-8.27 7.11-32.4 7.61-43.2 9.79-36.4 7.35-72.8 15.1-109 22.4-24.5 4.89-48.8 10.2-73.3 14.9-12.1 2.32-24.9 3.76-29.3-10.9 26.5-13.4 53.7-26.8 74.2-49.6 7.21-8.01 14.1-16.7 18.8-26.4 2.23-4.59 3.47-12.9 7.69-16 14.2-10.5 40.1-1.81 54.9-12 4.49-3.08 5.19-10.2 8.01-14.7 4.85-7.64 12.9-10 18.2-16.5 2.49-3.07 1.79-7.73 5.23-10.1 5.49-3.83 15.8-3.51 22.2-4.6 16.4-2.76 32.7-7.41 49.3-8.75zm153 2.67c11.9 1.04 23.3 6.21 34.7 9.71 4.4 1.36 10.7 2.41 13.3 6.65 3.23 5.2 1.37 15.1 1.37 21-0.013 25.7-11.8 48.5-28.5 67.6-19.5 22.3-43.5 36.4-68.9 50.9-8.88 5.05-23 13.9-33.3 14.5-14.5 0.76-29.8-9.19-44-11.6 2.37-6.84 11.3-8.84 17.3-11.9 15.8-8.11 32-15.5 46.7-25.7 25.3-17.6 53.2-43 60.4-74.4 3.33-14.5 0.906-31.8 0.906-46.7zm-5.33 1.33c0 14.9 1.41 30.7-2.35 45.3-10.1 39.2-47.5 67.6-81.7 85.5-10.1 5.27-29.7 19.4-41.1 18.9-6.04-0.24-3.33-9.75-5.57-13.4-2.59-4.17-8.88-5.76-13.3-7.03l1.33-53.3c17.2-0.013 31.7-10.7 46.7-18.3 13-6.69 28.7-12.5 39.9-22.2 4.55-3.93 6.84-9.57 11.1-13.6 9.36-8.87 32.3-20.2 45-21.9zm-74.8 3.45c7.98 0.106 17.2 2.92 19.3 11.2 2.56 10.1-11.1 13.8-17.9 17.2-6.89 3.53-14.9 9.37-22.7 10.4-11.2 1.53-29.8-7.15-40-11.7v-2.67c18.2-8.64 36-21.3 56-24.2 1.6-0.23 3.38-0.349 5.22-0.324zm-241 4.55c0 7.01 2.27 18.8-1.37 25.1-3.09 5.29-10.9 7.39-16 10.2-14.1 7.79-32 22.6-48 24.7 0.24-20.6 37.8-24.9 50.3-37.9 8.13-8.41-0.495-19.3 15.1-22.1zm850 10c7.44 0.139 14.7 4.39 21.5 7.37 13.9 6.13 28.3 11 42.7 15.9l-17.3 18.7c-12.4 2.68-25.8-5.51-37.3-9.39-4.07-1.36-10.4-3.09-12.6-7.17-3.4-6.28-0.694-17.6-2.04-24.8 1.72-0.472 3.45-0.659 5.16-0.627zm-12.8 0.115c1.69 9e-3 3.34 0.172 4.92 0.512-3.4 8.04-0.107 17.4-3.47 24.9-4.6 10.2-34.3 16.9-44.5 19.1-7.73-10.1-15.3-11.2-26.7-14.7 5.12-5.16 12.1-7.13 18.7-9.89 13.9-5.85 34.7-20 51.1-20zm-263 0.512c10.5 1.55 39.1 7.61 45.3 16.7 5.67 8.21 1.35 31.3 0.039 40.7-3.96 28.6-27.5 71.1-60 74.3-12.3 1.21-30.2-6.75-41.3-11.7 2.69-4.95 7.43-9.21 12.8-13.3-5.28 2.91-11.3 5.16-18.2 6.6-3.32-11.2-10.3-23.2-25.3-20.8-8.55 1.36-18.7 8.6-26.7 12.2-21.8 9.83-45 22.3-68 28.6 1.92 8.41 6.64 25.2 0.533 32.8-5.29 6.55-18.3 9.49-25.9 12.8-4.47 1.96-17.3 9.25-21.9 6.21-4.29-2.84-2.13-15.4-2.13-19.8 0-18.5-3.91-42.3 1.33-60 14.2-1.21 39.2-12.9 57.7-21.4 33.1-15.1 71.1-27 102-45.7 6.93-4.15 10.5-10.8 16.5-15.9 10.2-8.65 34.3-19.6 47.5-21-0.672 32.8-2.2 75.4-27.4 98 6.2-4.35 12.2-8.81 16.2-14 18.5-23.8 16.5-57 16.5-85.3zm-32.8 99.4c-3.51 2.46-7.07 4.88-10.4 7.38 3.85-2.12 7.3-4.6 10.4-7.38zm-467-92.7c-4.11 6.29-7.84 15.9-13.6 20.7-10.4 8.6-38.5 9.91-51.7 10l0.053-18 15.9-4.79zm-107 6.67c-9.32 16.9-38.8 21.7-56 24.5-50.2 8.43-101 16.8-151 26.1-3.12-20.1 31.3-19.1 46.7-21.3 53.7-7.63 106-21.5 160-29.3zm33.3 8c7.43 19.8-7.43 22.4-22.7 29.3-5.17 2.37-11.5 7.35-17.3 7.41-5.33 0.067-11.2-4.03-16-6.08 12.2-12.4 39.3-25.8 56-30.7zm847 12.2c2.8-0.132 6.47 1.67 8.55 2.29 11 3.25 21.4 7.87 32 12.2-0.813 15.6 2.77 33.6-3.79 48-16.1 35.3-54.5 49.7-88.2 63.2-11.6 4.65-26 12.5-38.7 13-13.8 0.573-28.9-7.77-42.7-9.55l14.7-7.47 36-13.9c-5.12-4.85-10.2-1.29-16 1.07-11.7 4.71-24.6 11.7-37.3 12.3l-4-68c20.1 0.04 34.5-6.59 53.3-12.9 13.8-4.61 27.5-8.35 30.7-24.4l48-14.7c-5.69 23.9 2.31 46.1-15.5 66.5-8.96 10.3-23 19.3-35.2 25.3-7.84 3.83-18.2 5.39-22.7 13.5 27.1-3.53 69-31 75.9-58.7 2.83-11.2 1.45-23.3 1.39-34.7-0.013-3.09-1.53-9.92 1.03-12.3 0.653-0.59 1.49-0.849 2.43-0.893zm-86.1 1.15c6.67 0.013 23.8 0.668 25.5 9.57 1.67 8.8-17.1 13.5-22.8 16-10 4.25-23.8 12.4-34.7 12.9-13.3 0.693-28.7-6.91-41.3-10.5v-2.67c22.4-9.97 48.6-25.4 73.3-25.3zm-1160 0.994c-6.41 0.236-13.5 6.43-13.8 13.7 4.24-1.35 9.44-9.43 14.2-6.55 10.8 6.57-26 25.6-4.85 26.1 2.2 0.053 4.46 0.159 6.66 0.105 3.45-0.107 6.2-1.05 9.34-2.37v-2.67h-10.7c2.75-6.21 10.6-13.8 8.22-21.3-1.69-5.21-5.28-7.21-9.12-7.07zm-29 3.25-0.498 28.5 4.28 4.35 0.699-27.7zm342 2.77c9.45 0.207 15.5 3.93 12.1 15.7 7.75 1.68 22.6-2.27 27.7 5.89 4.05 6.43-3.12 17.7-5.95 23.4-8.21 16.6-25 50.2-46.9 31.2-14.3-12.4 0.521-32.9-7.75-45.9-7.44-11.7-23-7.03-23.2-22.7 9.1-0.744 30.1-7.95 43.9-7.65zm342 2.99-8.15 5.79-20.4 24.2 25.3-5.33v13.3l14.7-17.3v-2.67l-9.33-1.33zm-548 0.127c7.37-0.0691 13.8 3.09 16.3 11.2-6.61 3.09-12.6 7.24-18.7 11.3-3.04 2.07-5.99 4.43-9.33 5.99-5.75 2.67-21.8-0.282-18.8-9.38 3.34-9.97 18.2-19 30.5-19.2zm407 1.33c-7.5 0.238-16.3 2.61-19.9 4.54v1.33l20 1.33c-3.81 7.16-13.6 29.7-2.67 33.3 0.107-13.2 3.63-27.8 14.7-36-1.21-3.62-6.26-4.72-12.1-4.54zm-117 0.539 1.33 1.33c-7.63 27.9-33.6 52.4-58.7 65.3 1.24-8.47 7.84-13.8 11.5-21.3 4.31-8.91 5.51-20 11.9-27.9 6.99-8.64 23.6-14.5 34-17.5zm532 0c-6.84 0.467-19.2 1.87-21.3 9.33l9.33-1.33-6.67 9.33c4.32 0.507 10.4-3.11 14.2-0.961 12 6.73-12.6 13.1-16.9 13 8.81 17.5 38.9-8.71 18.7-18.7zm-448 2.67-2.67 33.3c10.4 1.59 8.4-26 6.67-33.3zm-329 2.67 2.67 12-48 9.33c11.4-14.5 28.7-17.3 45.3-21.3zm465 1.33c-2.53 10.6-1.77 28.2 1.33 38.7h2.67c2.65-8.99 5.13-33.6-4-38.7zm34.7 4c-1.33 6.27-4.51 7.65-10.7 8zm528 1.33c-5.37 10.3-31.5 17.7-42.7 18.7v-1.33zm-283 2.85c-0.948 0.227-1.75 2.12-2.03 6.49-0.147 2.25-0.441 4.44-0.721 6.67-0.507 3.91-0.334 6.92 0.76 10.7 10.6-4.25 5.37-24.6 1.99-23.8zm295 14.5c-15.5 0.813-39.2 32.9-16 39.2 10.4 2.83 31.5-9.51 22.8-21.7-7.55-10.6-20.3 1.81-21.5 10.5 4.71-1.37 9.57-8.56 14.4-7.95 6.41 0.8-5.28 16.1-13 13.7-16-4.92 4.99-27.8 13.3-29.7zm-980 5.71c-8.26-0.229-22.2 3.73-23.5 7.62h21.3c-5.92 9.41-12.4 24.9-9.33 36 8.25-3.32 8.49-22.7 13.3-30.7 1.67-2.77 6.36-7.68 3.95-11.2-0.803-1.17-2.92-1.71-5.68-1.79zm-35.5 3.62v37.3h5.33c0-10.2 2.24-29.9-5.33-37.3zm976 2.67c-1.05 8.47-5 34.3 4 37.3v-37.3zm-924 5.19c-0.977-0.0216-2.03 0.0234-3.15 0.143l4 5.33c-4.59 3.05-16.3 14.9-6.46 19.2 5.35 2.35 26.2 0.974 31.8-0.533v-2.67c-12.5-5.81-11.5-21.2-26.2-21.5zm509 5.48-1.33 90.7c-20.2-0.413-43.5-10.1-62.7-16.2-5.91-1.88-16.3-2.11-18.2-9.25-1.28-4.61-1.28-12.7 2.67-16 14.5-12 35.8-18.2 51.6-29.1 9.36-6.45 16.5-17.4 28-20.1zm152 1.33c20.8 0.427 7.27 14.7 20.1 22.3 10.3 6.09 34.1 15.2 46 15 5.24-0.08 9.79-4.65 15-4.33 5.17 0.307 4.19 7.49 4.2 11.1-2.55-0.307-11.6-3.71-12.5 0.252-1.23 5.23 14.7 2.56 10.9 8.35-3.63 5.63-29.2-4.81-34.4-6.75-11.3-4.23-23.1-7.63-34.7-11.2-4.07-1.27-10.7-2.09-13.3-5.88-4.25-6.29-1.38-21.3-1.38-28.8zm-10.8 1.86c0.867 0.0249 1.67 0.158 2.39 0.418 4.29 1.55 2.89 8.36 2.89 11.8 0 16.7-6.39 19.1-21.1 25.3-8.51 3.56-16.9 7.39-25.3 11-12.2 5.23-24.6 11.4-37.3 14.9-2-6.77-3.99-22.9 0.799-28.8 9.12-11.2 35.5-16.2 48.5-22.2 6.28-2.86 20.8-12.7 29.2-12.5zm-645 1.96c7.53-0.013 2.96 8.61-2.47 8.93-7.08 0.427-2.92-8.93 2.47-8.93zm325 2.37c2.04 0.0114 4.01 0.159 5.88 0.471-10 12.7-20 8.77-20 28-8.41-1.16-28.3-10.5-30.7-18.7 12.8-3.31 30.5-9.88 44.8-9.8zm12.7 10.4c12.4-0.269 3.98 18.6 11 23.4 4.16 2.84 12 3.35 16.9 4.91 16.1 5.12 34.1 12.8 50.7 8.45 0 4.17 1.56 13.1-2.32 15.9-4.05 2.96-14.7-1.92-19-3.25-14.1-4.4-28.5-8.15-42.7-12.4-5.01-1.49-12.6-2.01-16.2-6.28-3.44-4.11-7.03-29.8 0.387-30.6 0.446-0.0496 0.87-0.0772 1.27-0.0859zm-9.47 0.713-1.57 29.2-19.8 12.5-58.7 26.3v-22.7c18.8 5.13 50.6-6 64.9-20.7 8.59-8.83-1.68-21.6 15.1-24.6zm-73.3 4c-9.53 14.5-39.9 21.2-56 24.1-35.7 6.45-71 15.3-107 22.3-14.7 2.89-30.3 7.95-45.3 8.27 22.9-20.8 56.3-24.7 85.3-30.1 40.5-7.59 81.6-21.3 123-24.5zm14.2 1.21c6.38-0.147 11.6 2.38 13.8 9.46l-24 10.7v-5.33c-8.56 0.64-14.3 10.3-22.6 9.79-4.57-0.28-5.15-4.75-2.29-7.6 6.64-6.68 22.9-16.7 35.1-17zm23.6 11.3c5.14 0.0723 9.29 2.47 11.4 8.79-12.4 3.85-47.2 30.8-53.3 9.33 9.15-3.33 28.7-18.3 41.9-18.1zm357 2.13c1.91 6.01 5.44 17.7 2.19 23.6-2.33 4.25-8.71 5.79-12.9 7.59-10.3 4.49-31.2 18.4-42.5 16.3-7.15-1.35-14.2-9.96-21.5-12.8v-2.67zm8 0 49.3 14.6 25.3 9.36-22.7 18.7c-11.3-2.2-42.6-6.52-49.3-16.6-3.59-5.39-2.57-19.6-2.71-26.1zm133 0.27c-1.11 0.0204-2.38 0.193-3.84 0.543-18.1 4.37-22.2 44.2 4 37.3 15-3.93 11.3-12.9 9.12-23.6-1.46-7.05-1.5-14.4-9.28-14.3zm-731 3.66c7.72 0.208 16.5 7.41 18.8 13.4-7.01 4.09-14.2 7.89-21.3 11.8-6.91 3.8-18.5 13.7-26.7 12.9-20.7-2.13-2.15-23.5 6.67-27.9 11.8-5.77 6.93 13.1 14.6 9.61 7.92-3.61-4.29-10.1-1.12-15 2.33-3.57 5.61-4.92 9.12-4.83zm733 1.4c-2.64 16.7-19.8 1.08 0 0zm-578 5.6c4.66 0.0596 9.02 0.761 12.9 2.4-6.15 7.15-16.9 9.95-25.3 13.8-18.2 8.41-40 23.7-60 26.2 0-6.64-3.13-20.6 1.25-25.9 3.81-4.61 14.6-4.69 20.1-5.81 14.2-2.89 34.5-10.9 51.1-10.7zm18.9 7.33c3.33-0.0835 6.6 0.879 8.62 3.75 4.39 6.24 0.866 19.9 1.37 27.3h-8c-2.11 7.09-8.41 8.69-14.7 11.7-13.9 6.57-35.2 14.6-50.7 12.9-6.79-0.733-25.3-4.27-22.9-14.9 1.79-8.04 29.1-15.7 36.2-19.3 14-6.97 28.3-13.5 42.7-19.7 2.12-0.922 4.75-1.62 7.34-1.68zm101 0.404c23.5 1.92 50.1 11.7 72 20l-14.7 21.3c-13.6-2-47.6-7.47-56-19.4-3.52-5-1.99-16.2-1.37-21.9zm-6.67 1.33-0.039 25.1-14.6 9.2-38.7 16.4-4-9.33c7.04-4 17.8-3.63 23.7-7.77 3.11-2.19 3.41-7.63-1.17-8.17-3.89-0.48-7.53 4.31-10.6 6.07-8.4 4.77-16.2 7.04-25.3 3.21v-2.67c21.3-10.1 47.4-28.5 70.7-32zm460 0.0742c9.34-0.353 11.6 10.7 0.883 13.5-10.1 2.57-15-9.95-4-13 1.11-0.302 2.15-0.462 3.12-0.498zm-138 13.3c1.51 14.2 4.72 34.1 1.76 48-7.48 35.1-44.1 64.6-79.1 69.3l-2.71-38.2-13.3-5.2-33.3-11.2c21-7.92 44.8-14.1 64-26.2 6.93-4.36 6.33-12 12.2-16.7 11.1-8.81 36.4-18.4 50.5-19.8zm6.67 0c11.4 1.68 39.4 6.57 47.2 15.3 3.2 3.61 1.95 9.56 2.25 14 0.92 13.4 1 25.5-2.59 38.7-8.73 31.9-45.2 62.7-78.9 66.1-12.7 1.29-32.8-5.93-44-11.4v-1.33c32.8-17.9 71.7-33.3 77.5-76 1.88-13.8-1.53-31-1.53-45.3zm-89.9 6.93c11.2-0.11 30.5 11 21.1 23.3-3.52 4.61-10.1 6.23-15.2 8.46-12.5 5.51-31.4 18.1-45.3 17.9-7.64-0.133-7.47-9.27-3.63-13.8 3.63-4.24 9.96-4.71 13.4-8.84 3.33-3.99 0.053-9.36 1.84-13.9 3.01-7.59 18.3-11.8 25.7-13 0.665-0.11 1.38-0.166 2.12-0.174zm-145 3.49c11.8 0.296 23.2 5.68 34.4 8.72 5.88 1.6 14.7 2.79 19.2 7.31 3.28 3.32 0.706 8.05 2.6 11.9 1.6 3.2 22.7 20.4 8.47 24.6-5.55 1.64-15.6-3.91-20.9-5.55-18.6-5.76-45.3-7.72-61.3-19.2-12.3-8.79-3.51-24.5 9.28-27.1 2.76-0.565 5.5-0.768 8.22-0.699zm-82 7.66c4.56-0.213 11.3 2.89 15.1 3.9 17.8 4.64 30.3 10.7 45.4 19.8 20 12.1 54.3 19.6 77.3 23.6-3.57 12.3-28.8 10.7-36.7 20.4-7.55 9.21 0.467 32-3.31 43.6-34.8-8.07-84.9-24.5-97.5-61.3-4.12-12.1-5.15-24.7-5.15-37.3 0-3.43-1.21-10.9 3.09-12.3 0.548-0.182 1.16-0.278 1.81-0.309zm186 0.59c-1.55 11.9-9.16 17.4-18.7 24 0-14.8 2.19-22.3 18.7-24zm-196 1.33c0 10.7-1.63 22.9 0.787 33.3 2.28 9.84 4.56 20.7 10.1 29.3 21.4 33.5 59.1 34.2 90.5 50.7-38.5 31.9-88.3 5.91-125-14.7v-2.67c7.67-3.91 17.2-3.69 24.2-7.31 2.49-1.29 5.29-5.72 1.77-7.62-4.21-2.28-25.1 10.8-31.3 12.3-12.1-17.7-22.1-36.7-20.4-58.7 0.267-3.67-1.36-8.19 0.52-11.6 2.23-4.01 8-5.99 11.9-7.87 11.3-5.47 24.8-14 37.3-15.2zm159 4c15.7 1.28 13.3 10.9 13.3 24l-13.3-13.3zm-243 0.441c3.29 0.125 6.88 1.19 10.6 2.23v2.67l-18.7 10.7c7.4-1.32 14-6.79 21.3-7.56 5.79-0.6 13.6 7.59 8.51 12.8-11.1 11.4-39.8 14.7-53.8 9.4v-2.67l21.3-12c-19.5 5.35-33 17.7-53.3 5.33 5.29-3.24 11.5-3.47 17.3-5.16 10.9-3.13 24.8-12.7 36-9.51 2.8-5 6.53-6.39 10.8-6.23zm-154 0.787c-1.74-4e-3 -3.62 0.455-5.6 1.48-15.2 7.83-11.9 48.5 11.9 36.2 13.3-6.86 7.85-37.6-6.34-37.7zm-28.3 2.77v40c8.81-2.92 8.81-37.1 0-40zm28.6 2.9c5.09 0.214 8.01 6.64 1.82 9.22-6.93 2.91-12.1-5.51-4.83-8.64 1.05-0.45 2.06-0.624 3-0.584zm531 6.44c-9.92 0.52-19.8 3.83-20.2 14.7-0.093 2.52-1.52 7.41 1.07 9.15 4.48 3 9.75-4.76 14.7-2.09 6.96 3.72-2 13.5-6.24 15.2-3.69 1.45-8.11-0.266-12 0.414 8.61 22.5 41.9-15.8 20-22.1-3.35-0.96-7.19-0.574-10.6-0.574zm-107 5.33v4h-1.33zm-422 3.56c1.14-0.0185 2.24 0.129 3.23 0.479 8.64 3.05-3.48 15.7-11.4 12.3-9.99-4.35 0.158-12.6 8.15-12.8zm494 4.44c0 9.41 0.28 18.7-1.23 28-0.427 2.61-2.31 8.32 0.641 10.1 4.27 2.61 4.51-5.41 4.6-7.45 0.453-10.4 2.45-20.3-0.014-30.7zm-78.7 1.33 5.33 9.33c-5.51-1.15-9.15-4.04-5.33-9.33zm203 8c8.76 0.187 37.9 5.03 41.9 13.7 3.28 7.09 0.799 19.9 0.799 27.6l-38.7-10.2-12.2-6.11zm-199 5.86c11.8 0.016 29 8.62 39.1 11.8 4.15 1.32 10.1 1.63 11.6 6.52 3.24 11-4.41 37.2 8.45 42.5 12.2 5.01 42.1 15.9 54.6 11.9 11.2-3.57 23.5-8.36 33.3-14.9 5.21-3.44 14.6-10.8 21.2-9.41 8.24 1.67 8.29 39 3.91 45-4.72 6.48-22.9 10.6-30.4 12.7-11.3 3.15-25.1-3.91-36-7-26.1-7.43-52.6-13.6-78.7-21.3-9.33-2.77-26.9-4.25-33.9-11.4-3.41-3.48-2.13-10.5-2.13-14.9v-37.3c0-4.93-1.07-12.7 5.41-13.9 1.09-0.198 2.25-0.287 3.46-0.285zm-17.9 1.78c1.25 0 2.48 0.115 3.66 0.361-2.59 13.3-1.33 30.3-1.33 44 0 5.67 1.67 14.7-1.37 19.7-5.85 9.75-31.1 14.7-41.3 18.9-29.8 12-59 25.8-89.3 36.6-11 3.89-21.6 10.5-33.3 11.5 0-7.05-3.03-23.1 3.09-27.9 4.83-3.81 10.3-2 15.5-3.87 2.73-0.973 6.32-4.55 3.33-7.35-3.44-3.24-16.5 6.64-21.9 7.12 0-5.27-2.6-20.5 2.13-23.9 3.21-2.32 9.17 0.2 12.5 1.08 8.97 2.36 32.9 4.48 34.7 14.8 16.2-1.28 30.5-10.3 45.3-16.9 4.96-2.24 13-3.75 16-8.71 6.52-10.8-1.52-29 2.13-41 1.77-5.8 7.4-7.83 12.6-9.81 10.6-4.06 25.5-14.6 37.7-14.6zm-347 20.4 1.33 37.3h2.67c2.68-9.08 7.53-33.7-4-37.3zm557 4.27c12.2 0.116 32.5 10.1 42 13.1v2.67l-12 14.7c-16.7-0.76-33.4-8.63-48-16 3.24-4.75 7.57-11.9 13.3-13.8 1.35-0.433 2.93-0.616 4.67-0.6zm-12.7 25.1 38.7 10.7v16l-38.7 12zm70.7 21.3c-7.79 37.7-7.28 80.4-2.29 119 2.13 16.4 3.53 32.9 5.05 49.3 0.533 5.65 3.37 14.2 1.55 19.7-1.51 4.51-8.4 5.29-12.3 6.41-10.7 3.08-21.4 6.85-32 10.5-32.1 10.9-64.9 20-97.3 30-16.2 4.96-33.6 13.3-50.7 13.5 0-43.3-3.42-86.2-5.38-129-0.533-11.7-11.9-32-8.4-42.5 3.67-11.2 35.7-17.2 45.8-21.2 33.8-13.3 68.6-24.6 103-37.2 16.5-6.12 35.6-16.9 53.3-17.8zm-267 1.33c3.24 10.9 7.73 43.1 0.08 52.5-3.67 4.52-12.2 6.24-17.4 8.33-14.1 5.64-28.6 10.2-42.7 15.8-11.6 4.61-34 18.5-46.5 16.2-7.41-1.35-11.2-11.6-16.4-16.3-8.15-7.37-19.9-10.5-30.4-12.5 6.56-10 29.1-14.3 40-18.7 36.7-14.6 74.9-36.4 113-45.3zm9.33 0c43.2 8.92 90.7 20.4 132 36v2.67c-16.6 4.71-33.3 10.7-49.3 16.9-9.05 3.49-19.6 9.72-29.3 10.6-11.4 1.09-27.6-6.55-38.7-9.63-4.61-1.28-10.3-1.87-13.1-6.2-6.67-10.1-4.81-39.2-1.52-50.4zm-324 3.97c-10 0.071-22.4 6.59-13.9 16.9 7.24 8.8 18.2-0.495 18.8-8.91-3.47 1.04-5.2 2.85-8.23 4.76-6.04 3.79-8.75-2.67-3.57-6.43 7.97-5.81 17.5 4.05 14.4 12.3-3.51 9.39-13.6 11.2-18.6 18.7 15.3-0.36 39.6-27.5 17.3-36.3-1.77-0.702-3.95-1.03-6.26-1.01zm-32.4 1.36v33.3h5.33c0-8.87 4.88-30-5.33-33.3zm631 1.33v1.33h-4zm-12 1.33h4v4h-4zm-37.3 4-4 17.3c7.12-2.56 14.1-14 4-17.3zm64.7 0.125c2.49-0.082 5.01 0.209 7.31 0.836 15.8 4.29 35.7 16.4 41.3 32.4l-33.3-18.5-30.7-2.87c0.62-8.02 7.88-11.6 15.4-11.9zm-18 9.21c-0.573 7.51-4.83 10.6-12 12 1.4-6.77 5.39-10.3 12-12zm15.4 4.9c3.29-0.024 6.94 0.769 9.9 1.76 14.2 4.79 39.5 15.1 41.3 32-20.3-13.5-33.2-29.9-60-24-1.23-7.42 3.28-9.72 8.77-9.76zm-105 4.43-3.47 13-16.5 13.7c6.48-0.493 13.8 0.414 16-6.67 7.48 1.63 25.3 1.81 22.7-9.33-14.1 5.6-12.3 1.72-16-10.7zm90.7 1.33c1.83 8.04-6.73 12.9-13.3 16 0.92-8.23 5.91-12.9 13.3-16zm-54.3 1.2c-5.04 0.131-8.53 3.38-11.1 8.14 6.52-0.36 10.1-2.2 13.3-8-0.785-0.113-1.54-0.157-2.26-0.139zm-65.7 5.47v2.67c5.96 2.28 14.7 6.64 17.3-1.33zm128 0c20.6 0 54.5 9.4 57.3 34.7-18.9-13.3-31.6-25.7-56-22.7zm-4 4c4 11.3-5.99 11.7-9.33 21.3 6.87-3.84 12.9-11.5 16 0-9.07 3.61-15.7 6.95-17.3 17.3l20-13.3c1.79 7.09 7.17 13 8.6 20 1.03 5.09-2.92 9.77 0.227 14.6 3.33 5.08 12.5 6.37 13.6-1.25 0.627-4.24-4.33-8.72-6.45-12 19.5 9.33 7.17 22.9 9.33 38.7-20.8-1.07-40.1-18-35.5-40 1.32-6.4 7.09-9.87 8.88-16-15.3 3.96-13.3 22.3-13.3 34.7h-1.33l-2.67-18.7c-7.48 4.16-3.45 11.9-1.52 18.7 3.27 11.5 10.1 24.9 21.5 30.2 6.81 3.13 16.1 3.32 22.2 7.53 4.07 2.79 2.92 7.64 1.76 11.6-11.1-3.23-26.9-8.91-35.5-16.8-20.9-19.2-17.9-51.2-9.79-75.2l-6.67 4c-1.87-11.6 6.01-22.6 17.3-25.3zm15 11.5c17.3 0.283 40.4 11.1 42.3 28.5-6.99-1.08-10.3-6.45-16.1-10.1-10.6-6.65-20.9-9.93-33.3-9.93v-8c2.16-0.4 4.51-0.576 6.99-0.535zm-641 1.57c-7.2-0.148-15.1 7.42-15.4 15 6-0.973 6.96-6.75 12.1-8.15 5.05-1.36 6.56 4.33 6.41 8.15-0.373 9.53-10.4 12.8-11.9 21.3 6.83 0.573 18.6 2.33 22.7-4h-10.7c3.49-8.01 10.3-17.4 5.29-26.6-2.18-3.98-5.3-5.64-8.57-5.71zm346 2.36c4.01 0.061 8.13 1.25 12.2 3.27v1.33l-26.7 1.33c4.37-4.24 9.34-6.01 14.5-5.94zm163 0.604c-8.24 0.6-15 5.23-17.3 13.3 6.8-1.76 15.1-6.4 17.3-13.3zm-475 2.87c-1.13 0.049-2.3 0.213-3.51 0.506-22.9 5.53-13.5 35.9 9.32 29.2 17.8-5.24 11.1-30.4-5.81-29.7zm0.453 4.46c12.3 0.432 14.2 19.1 1.35 21.5-14.4 2.77-17.1-19.3-3.95-21.4 0.912-0.143 1.78-0.195 2.6-0.166zm604 0.674c11.6 0.04 31.1 6.47 35.8 18.6 1.39 3.61-1.57 6.97-0.693 10.8 2.43 10.5 6.59 31.6-8.41 33.3 0.04-11.4 6.85-22.2 0.986-33.2-5.41-10.1-20-8.76-22.3-20.1l20 5.33zm-219 5.33c2.11 6.07 9.64 8.37 12 1.33zm70.7 2.67-25.3 8-1.33 1.33v2.67l6.67 5.33c-12.3-2.45-14.2-16.2-29.3-13.3v2.67c8.71 5.15 16.7 9.53 21.7 18.7 3.67 6.61 4.07 16.9 10.3 21.3l-0.894-22.4 11.1-7.25zm195 9.33c5.05 4.21 5.31 8.33 5.33 14.7-5.04-3.05-7.51-9.04-5.33-14.7zm-42.7 2.67c-18.3 2.09-9.28 32.2 6.67 30.7v-2.67c-13-6.93-12.7-16.6-6.67-28zm36 4c8.65 11.1 10.7 26.8 5.59 40-1.76 4.51-12.8 14.6-17.3 7.27-2.52-4.04 9.48-8.24 11.2-11.4 6.11-11.5-2.12-24.9 0.572-35.8zm-32 5.33 8 2.67v2.67c-4.89 0.72-6.57-0.614-8-5.33zm-97.9 9.31c-4.53-0.21-11.8 3.33-18.1 6.69v2.67l1.33 1.33 14.7-2.67-5.33 12c11-3.35 18.7 7.81 6.64 13-3.75 1.59-8.19-0.334-12-0.961 1.71 21.9 44.4-8.64 16-20 2.68-8.73 0.796-11.8-3.2-12zm-511 4.02-25.3 24v2.67l19.9 0.441 6.16 11.3 12.6-17.1c-10.4-1.65-7.36-13-8-21.3zm585 0c11.7 11.7 22.2 20.1 38.7 24v5.33c-13.7-0.293-42.2-11.3-38.7-29.3zm-624 2.33c-7.25 0.289-14.9 7.65-15 16.3 6.21-1.04 5.69-6.52 10.9-8.51 5.76-2.2 9.77 3.2 8.43 8.51-2.37 9.36-12.7 13.6-15.3 22.7 7.81-0.16 28 0.107 30.7-8l-16 1.33c3.2-7.32 10.5-15.3 7.2-24-2.34-6.16-6.54-8.53-10.9-8.36zm515 1.94c-8.05 0-16.7 9.03-17.9 17.1 6.68-1.11 7.39-7.71 13.4-9.6 19.3-6.09-0.8 28.5-1.39 32.3 7.2-0.627 21.4-3.27 24-10.7h-10.7c2.19-6.81 6.36-15.5 2.43-22.5-2.63-4.68-6.15-6.54-9.81-6.54zm-449 4.8c-2.83-0.039-5.5 1.55-7.87 5.6h10.7v1.33c-7.4 2.52-20.9 16.6-7.92 21.9 7.37 2.96 13-2.95 19.9-2.96 6.21 0 10.2 4.67 14.7-1.57-7.24-3.27-19.4-24.1-29.5-24.3zm-27.9 2.93c-0.28 8.33-4.12 10-12 10.7zm655 0c0.053 20-0.534 35.5-25.3 36v-13.3c19.1-0.053 16.5-10 25.3-22.7zm-220 6.67c0.013 6.91-1.01 17.5 6.67 20l-1.33-20zm141 2.67c14.7 12.6 28.1 27.2 49.3 29.3v8c-19.6 0-55.9-9.92-49.3-37.3zm-544 1.12c5.69 0.188 9.51 10.5-7.74 10.9 1.26-8.3 4.75-11 7.74-10.9zm547 21.5h1.33c8.04 10.8 16.1 15.1 29.3 17.4 4.23 0.733 14.5-0.173 15.4 5.4 1.01 5.85-4.63 6.44-8.76 5.28-12-3.32-42.6-9.23-37.3-28.1zm73.3 2.67c-5.59 6.69-14.1 9.91-22.7 10.7 2.08-7.13 16-9.43 22.7-10.7zm-211 2.67-4 1.33 4 24h2.67l1.33-1.33zm213 2.67c-4.56 11.3-15.1 17.2-26.7 20 3.04-12.1 14.9-16.8 26.7-20zm-567 8c-20.2 7.85-40.8 15.1-61.3 22.2-6.73 2.33-18.8 3.81-21.3 11.1l84-28zm565 5.33c-4.64 8.53-14.5 13.7-24 14.7 3.92-7.53 15.7-13.6 24-14.7zm-69.3 4 2.67 6.67c-4.01-0.867-4.67-3.19-2.67-6.67zm16 5.33 22.7 2.67v1.33c-8.11 2.37-15.5 0.04-22.7-4zm52 0c-6.79 14.2-22.7 14.9-36 10.7v-1.33c14.4 0 22.9-4.16 36-9.33zm1.33 8c-3.27 7.08-5.37 9.24-13.3 9.33zm-74.7 1.57c9.41-0.067 20.2 3.97 29.3 6.25 9.45 2.37 22.7 3.95 30.7 9.51l-56 17.5-78.7 23.7-56 15.6-28-8.8-28-5.39c14.7-11 41.1-13.7 58.7-19.4 28.8-9.35 57.7-18.3 86.7-27.1 12.8-3.93 27.8-11.8 41.3-11.9zm-137 3.76c0 8.17-2.83 20.8 5.33 25.3 0-7.51 3.27-22.5-5.33-25.3zm-452 9.33-49.3 15.9-68 24.1v2.67l1.33 1.33c28.9-7.89 57-20.4 85.3-30.2 8.85-3.07 25.7-5.51 30.7-13.8zm112 23.6c-6.18 0.217-16 5.53-17.8 11l10.7-1.33-5.33 5.33c3 8.93 9.69-0.332 15.4 3.8 15.5 11.1-14.4 14.1-18.1 14.9 10.7 20.4 44.3-10.7 17.3-22.7 5.19-8.3 2.62-11.2-2.19-11zm342 9.71-1.33 1.33 1.33 18.7c8.36-2.77 6.85-16.2 0-20zm-384 3.24c-6.35 0.088-13.1 4.19-15.2 10.1l5.33 1.33c4.27-5.08 15.1-9.39 15.3 1.36 0.173 9.64-8.6 16.2-9.93 25.3 8.44-0.427 19.5-3.01 25.3-9.33h-13.3c3.44-6.81 7.43-15.1 3.39-22.6-2.38-4.4-6.55-6.22-10.9-6.16zm-31.2 117c-27.1 2.21-56.7 15.9-82.7 24-8.87 2.75-23.3 3.23-28 12 27.8-3.75 55.8-16 82.7-24.2 8.47-2.57 23.3-3.77 28-11.8z" fill="#b29f88" stroke="#b29f88" stroke-width="3"/></g></svg>
