<?xml version="1.0" encoding="UTF-8" standalone="no"?>
<svg
   xmlns:dc="http://purl.org/dc/elements/1.1/"
   xmlns:cc="http://creativecommons.org/ns#"
   xmlns:rdf="http://www.w3.org/1999/02/22-rdf-syntax-ns#"
   xmlns:svg="http://www.w3.org/2000/svg"
   xmlns="http://www.w3.org/2000/svg"
   xmlns:xlink="http://www.w3.org/1999/xlink"
   xmlns:sodipodi="http://sodipodi.sourceforge.net/DTD/sodipodi-0.dtd"
   xmlns:inkscape="http://www.inkscape.org/namespaces/inkscape"
   inkscape:export-ydpi="200.02499"
   inkscape:export-xdpi="200.02499"
   inkscape:export-filename="/home/terence/smartbuilding/brand/210505_structuralcity.png"
   sodipodi:docname="210505_structuralcity.svg"
   inkscape:version="1.0.2 (e86c870879, 2021-01-15)"
   id="svg8"
   version="1.1"
   viewBox="0 0 1016 338.66668"
   height="1280"
   width="3840">
  <defs
     id="defs2">
    <linearGradient
       inkscape:collect="always"
       id="linearGradient2780">
      <stop
         style="stop-color:#5f5044;stop-opacity:1;"
         offset="0"
         id="stop2776" />
      <stop
         style="stop-color:#5f5044;stop-opacity:0;"
         offset="1"
         id="stop2778" />
    </linearGradient>
    <linearGradient
       inkscape:collect="always"
       id="linearGradient2772">
      <stop
         style="stop-color:#796757;stop-opacity:1;"
         offset="0"
         id="stop2768" />
      <stop
         style="stop-color:#796757;stop-opacity:0;"
         offset="1"
         id="stop2770" />
    </linearGradient>
    <linearGradient
       inkscape:collect="always"
       id="linearGradient2746">
      <stop
         style="stop-color:#b19f87;stop-opacity:1;"
         offset="0"
         id="stop2742" />
      <stop
         style="stop-color:#b19f87;stop-opacity:0;"
         offset="1"
         id="stop2744" />
    </linearGradient>
    <rect
       x="51.690956"
       y="255.75065"
       width="920.7915"
       height="68.134931"
       id="rect1874" />
    <rect
       id="rect1434"
       height="151.32806"
       width="914.54318"
       y="169.33334"
       x="50.800001" />
    <rect
       id="rect1424"
       height="140.3908"
       width="915.45403"
       y="169.33334"
       x="50.800001" />
    <rect
       x="54.800587"
       y="45.714314"
       width="992.64992"
       height="100.84419"
       id="rect1222" />
    <rect
       x="54.800587"
       y="45.714314"
       width="440.32242"
       height="127.832"
       id="rect1833" />
    <linearGradient
       inkscape:collect="always"
       xlink:href="#linearGradient2746"
       id="linearGradient2748"
       x1="509.81232"
       y1="158.77304"
       x2="514.52612"
       y2="-72.136368"
       gradientUnits="userSpaceOnUse" />
    <linearGradient
       inkscape:collect="always"
       xlink:href="#linearGradient2772"
       id="linearGradient2774"
       x1="73.444824"
       y1="262.5968"
       x2="73.547844"
       y2="248.42036"
       gradientUnits="userSpaceOnUse" />
    <linearGradient
       inkscape:collect="always"
       xlink:href="#linearGradient2780"
       id="linearGradient2782"
       x1="499.35022"
       y1="199.91676"
       x2="504.86667"
       y2="-87.790855"
       gradientUnits="userSpaceOnUse" />
  </defs>
  <sodipodi:namedview
     inkscape:window-maximized="1"
     inkscape:window-y="0"
     inkscape:window-x="0"
     inkscape:window-height="1024"
     inkscape:window-width="1280"
     inkscape:pagecheckerboard="true"
     units="px"
     showgrid="false"
     inkscape:document-rotation="0"
     inkscape:current-layer="layer1"
     inkscape:document-units="px"
     inkscape:cy="804.07649"
     inkscape:cx="2609.8826"
     inkscape:zoom="0.13690798"
     inkscape:pageshadow="2"
     inkscape:pageopacity="0.0"
     borderopacity="1.0"
     bordercolor="#666666"
     pagecolor="#ffffff"
     id="base" />
  <metadata
     id="metadata5">
    <rdf:RDF>
      <cc:Work
         rdf:about="">
        <dc:format>image/svg+xml</dc:format>
        <dc:type
           rdf:resource="http://purl.org/dc/dcmitype/StillImage" />
        <dc:title></dc:title>
      </cc:Work>
    </rdf:RDF>
  </metadata>
  <g
     id="layer1"
     inkscape:groupmode="layer"
     inkscape:label="Layer 1">
    <path
       inkscape:label="1.6188"
       sodipodi:nodetypes="cccc"
       id="path1420"
       d="M 50.800001,169.33334 234.68542,50.800001 965.20002,169.33334 Z"
       style="display:none;fill:#b19f87;fill-opacity:1;stroke:#000000;stroke-width:0.264583px;stroke-linecap:butt;stroke-linejoin:miter;stroke-opacity:1" />
    <text
       style="font-style:normal;font-weight:normal;font-size:118.533px;line-height:1.25;font-family:sans-serif;letter-spacing:0px;word-spacing:0px;white-space:pre;shape-inside:url(#rect1424);fill:#000000;fill-opacity:1;stroke:none;"
       id="text1422"
       xml:space="preserve" />
    <path
       inkscape:label="first try"
       style="display:none;fill:#b19f87;fill-opacity:1;stroke:none;stroke-width:0.264583px;stroke-linecap:butt;stroke-linejoin:miter;stroke-opacity:1"
       d="m 222.25,169.33334 v 0 l -10.55026,-103.716672 22.98568,-14.816667 45.65716,7.408334 v 0 0 L 279.40001,169.33334 H 222.25 m 87.23634,-105.985687 62.17057,9.677349 45.65716,7.408334 45.65716,7.408333 45.65717,7.408334 45.65716,7.408337 45.65716,7.40833 45.65716,7.40833 45.65717,7.40834 45.65716,7.40833 45.65716,7.40833 45.65716,7.40834 45.65717,7.40833 45.65716,7.40834 45.65716,7.40833 h -28.575 -28.575 -28.575 -28.575 -28.575 -28.575 -28.575 -28.575 -28.57501 -28.575 -28.575 -28.575 -28.575 -28.575 -28.575 -28.575 -28.575 -28.575 -28.575 -28.575 -28.575 -28.575 -32.80833 z m -120.77227,17.085683 11.77271,89.474274 v 0 m 0,0 L 165.1,169.33334 H 136.525 107.95 79.375002 50.800001 l 22.985677,-14.81667 22.985678,-14.81666 22.985674,-14.81667 22.98568,-14.81667 11.49284,-7.40833 11.49284,-7.408337 22.98568,-14.816667"
       id="path1455"
       sodipodi:nodetypes="ccccccsccccccccccccccccccccccccccccccccccccccccccccccccccccccccc" />
    <path
       style="display:none;fill:#b19f87;fill-opacity:1;stroke:#000000;stroke-width:0.264583px;stroke-linecap:butt;stroke-linejoin:miter;stroke-opacity:1"
       d="M 50.800001,169.33334 C 121.47454,142.37922 188.28957,110.25806 234.68542,50.800001 357.9627,99.203953 872.10086,141.94836 965.20002,105.83334 l -118.53334,63.5 z"
       id="path1457"
       sodipodi:nodetypes="ccccc"
       inkscape:label="curved both" />
    <text
       xml:space="preserve"
       id="text1220"
       style="font-style:normal;font-weight:normal;font-size:74.0833px;line-height:1.25;font-family:sans-serif;letter-spacing:0px;word-spacing:21.1667px;white-space:pre;shape-inside:url(#rect1222);fill:url(#linearGradient2782);fill-opacity:1;stroke:none;"
       transform="translate(3.1539997,186.99152)"><tspan
         x="54.800781"
         y="120.16856"><tspan
           style="font-style:normal;font-variant:normal;font-weight:normal;font-stretch:normal;font-size:74.0833px;font-family:'Noto Serif TC';-inkscape-font-specification:'Noto Serif TC';fill:url(#linearGradient2782);fill-opacity:1">協</tspan><tspan
           dx="-21.1667"
           style="font-style:normal;font-variant:normal;font-weight:normal;font-stretch:normal;font-size:74.0833px;font-family:'Noto Serif TC';-inkscape-font-specification:'Noto Serif TC';fill:url(#linearGradient2782);fill-opacity:1">     </tspan><tspan
           dx="21.166697"
           style="font-style:normal;font-variant:normal;font-weight:normal;font-stretch:normal;font-size:74.0833px;font-family:'Noto Serif TC';-inkscape-font-specification:'Noto Serif TC';fill:url(#linearGradient2782);fill-opacity:1">助</tspan><tspan
           dx="-21.166693"
           style="font-style:normal;font-variant:normal;font-weight:normal;font-stretch:normal;font-size:74.0833px;font-family:'Noto Serif TC';-inkscape-font-specification:'Noto Serif TC';fill:url(#linearGradient2782);fill-opacity:1">     </tspan><tspan
           dx="21.166674"
           style="font-style:normal;font-variant:normal;font-weight:normal;font-stretch:normal;font-size:74.0833px;font-family:'Noto Serif TC';-inkscape-font-specification:'Noto Serif TC';fill:url(#linearGradient2782);fill-opacity:1">城</tspan><tspan
           dx="-21.166723"
           style="font-style:normal;font-variant:normal;font-weight:normal;font-stretch:normal;font-size:74.0833px;font-family:'Noto Serif TC';-inkscape-font-specification:'Noto Serif TC';fill:url(#linearGradient2782);fill-opacity:1">     </tspan><tspan
           dx="21.166704"
           style="font-style:normal;font-variant:normal;font-weight:normal;font-stretch:normal;font-size:74.0833px;font-family:'Noto Serif TC';-inkscape-font-specification:'Noto Serif TC';fill:url(#linearGradient2782);fill-opacity:1">市</tspan></tspan></text>
    <text
       xml:space="preserve"
       id="text1872"
       style="font-style:normal;font-variant:normal;font-weight:normal;font-stretch:normal;font-size:4.93889px;line-height:1;font-family:'DejaVu Sans Mono';-inkscape-font-specification:'DejaVu Sans Mono, Normal';font-variant-ligatures:normal;font-variant-caps:normal;font-variant-numeric:normal;font-variant-east-asian:normal;letter-spacing:0.911495px;word-spacing:0px;white-space:pre;shape-inside:url(#rect1874);fill:url(#linearGradient2774);fill-opacity:1;"
       transform="matrix(20.849993,0,0,17.074092,-1025.472,-4215.0939)"><tspan
         x="51.691406"
         y="259.51875"><tspan
           style="font-style:normal;font-variant:normal;font-weight:300;font-stretch:normal;font-size:4.93889px;font-family:'Chakra Petch';-inkscape-font-specification:'Chakra Petch Light';font-variant-ligatures:normal;font-variant-caps:normal;font-variant-numeric:normal;font-variant-east-asian:normal;fill:url(#linearGradient2774);fill-opacity:1">structural.city</tspan></tspan></text>
    <text
       xml:space="preserve"
       style="font-size:4.9389px;line-height:0;font-family:sans-serif;letter-spacing:0px;word-spacing:0px;stroke-width:0.264583"
       x="611.16504"
       y="285.54846"
       id="text63"><tspan
         sodipodi:role="line"
         id="tspan61"
         x="611.16504"
         y="285.54846"
         style="stroke-width:0.264583"> </tspan></text>
    <path
       id="path1634"
       style="display:inline;fill:url(#linearGradient2748);fill-opacity:1;stroke:none;stroke-width:0.264583px;stroke-linecap:butt;stroke-linejoin:miter;stroke-opacity:1"
       inkscape:label="curved"
       d="m 508.00001,26.458334 c -18.54107,8.070341 -39.95899,15.035804 -63.5,21.034377 v 15.66881 c 38.99263,-7.327141 62.55018,-12.685014 62.55018,-12.685014 l 1.74201,-0.398426 1.74408,0.386541 c 0,0 22.99793,5.088726 60.96374,12.124841 V 46.609561 C 549.00988,40.863575 527.70544,34.195532 508.00001,26.458334 Z m 84.66667,25.216032 v 14.755172 c 17.34564,3.077345 36.93727,6.384587 58.20834,9.715688 V 62.624602 C 630.92181,59.4995 611.44443,55.876997 592.66668,51.674366 Z M 423.33335,52.50739 c -18.4434,4.060757 -37.94581,7.605721 -58.20834,10.685138 v 13.657564 c 21.26983,-3.346072 40.83344,-6.681983 58.20834,-9.800437 z M 672.04168,65.733457 V 79.37862 c 16.83735,2.508549 34.55779,4.99132 52.91667,7.363375 v -14.84354 c -17.84376,-1.738694 -35.52894,-3.776681 -52.91667,-6.164998 z m -328.08334,0.473874 c -16.2338,2.164995 -32.85884,4.062425 -49.74166,5.708695 v 15.121557 c 17.25014,-2.23533 33.87164,-4.575509 49.74166,-6.943763 z m 164.87675,0.110587 c -1.57004,0.357093 -25.54028,5.779109 -64.33508,13.049333 v 16.523023 c 38.50535,-7.248263 61.7337,-12.531019 61.7337,-12.531019 l 1.74202,-0.398425 1.74408,0.38654 c 0,0 23.3141,5.160677 61.78021,12.277286 V 78.785374 C 533.76744,71.80774 510.3697,66.657503 508.83509,66.317918 Z m 237.28993,7.4998 v 15.571143 c 15.53178,1.876779 31.45015,3.653274 47.625,5.281848 V 77.183404 c -15.89418,-0.925576 -31.80046,-2.035146 -47.625,-3.365686 z m -473.07501,0.02481 c -15.75264,1.334746 -31.66528,2.470613 -47.62501,3.424598 v 17.684708 c 16.20303,-1.618052 32.11449,-3.390257 47.62501,-5.264277 z m 541.86668,4.467429 v 18.389058 c 13.98709,1.272786 28.12595,2.415715 42.33333,3.409095 V 79.974964 c -14.02461,-0.435369 -28.1554,-0.979707 -42.33333,-1.665012 z m -610.65836,0.117817 c -15.91878,0.795903 -31.83199,1.423574 -47.625,1.900142 v 20.342944 c 16.02128,-1.047397 31.92799,-2.301903 47.625,-3.712434 z m 674.15836,2.1239 v 20.916556 c 14.10467,0.82288 28.24051,1.47837 42.33333,1.93838 V 81.26326 c -13.9125,-0.148238 -28.04419,-0.375412 -42.33333,-0.711586 z m -742.95003,0.328663 c -14.28253,0.316005 -28.42324,0.516048 -42.333334,0.613915 v 22.157298 c 14.113694,-0.38205 28.247894,-0.96513 42.333334,-1.71772 z m 806.45003,0.550354 v 22.514899 c 7.79021,0.14134 15.55607,0.21932 23.28334,0.22428 v -22.6782 c -7.66191,0 -15.43349,-0.02009 -23.28334,-0.06098 z m -891.116698,0.06098 v 22.677159 l 0.837673,0.003 c 6.758162,0.019 13.536973,-0.0155 20.328994,-0.0997 V 81.56815 C 64.833024,81.567169 57.771458,81.54152 50.799992,81.49167 Z m 541.866688,1.126545 v 16.838248 c 17.3653,3.075756 36.95481,6.376856 58.20834,9.699146 V 92.297211 C 629.62993,88.986014 610.04468,85.69256 592.66668,82.618215 Z m -169.33333,0.625285 c -17.40893,3.11432 -36.96333,6.434788 -58.20834,9.759612 v 16.600537 c 21.28925,-3.35559 40.85151,-6.69732 58.20834,-9.818007 z M 672.04168,95.514069 V 112.3828 c 16.84301,2.50452 34.563,4.98168 52.91667,7.34736 v -16.90129 c -18.3588,-2.35389 -36.07699,-4.819791 -52.91667,-7.314802 z m -328.08334,0.714687 c -15.87222,2.354467 -32.49239,4.678234 -49.74166,6.895704 v 16.68838 c 17.25482,-2.2416 33.87664,-4.58738 49.74166,-6.95978 z m 164.06234,2.971912 c -1.55903,0.354584 -25.2036,5.704262 -63.52067,12.898952 v 32.89205 h 4.23334 122.76667 V 111.82056 C 533.24989,104.76113 509.56878,99.543239 508.02068,99.200667 Z m 238.10434,6.253882 v 16.91576 c 15.5344,1.87207 31.45269,3.64278 47.625,5.26531 v -16.95091 c -16.18078,-1.61137 -32.09774,-3.37006 -47.625,-5.23016 z m -473.07501,0.29713 c -15.50631,1.8569 -31.41676,3.61159 -47.62501,5.21209 v 16.7876 c 16.20554,-1.62436 32.11714,-3.40235 47.62501,-5.28133 z m 541.86668,6.93808 v 16.96692 c 13.98868,1.26765 28.12746,2.40486 42.33333,3.39205 V 116.0539 c -14.21545,-0.97942 -28.35357,-2.10739 -42.33333,-3.36414 z m -610.65836,0.25735 c -15.68846,1.3924 -31.59374,2.62972 -47.625,3.66179 v 16.88993 c 16.02321,-1.05465 31.92989,-2.31555 47.625,-3.73207 z m 388.40835,2.69182 v 29.35274 h 58.20834 v -19.68718 c -21.23401,-3.30345 -40.80436,-6.59188 -58.20834,-9.66556 z m -169.33333,0.34417 c -17.39131,3.11723 -36.94491,6.44452 -58.20834,9.77925 v 19.22932 h 58.20834 z m 455.08334,1.41025 v 17.0062 c 14.10608,0.81648 28.24192,1.46478 42.33333,1.91719 v -17.01911 c -14.10512,-0.45141 -28.23998,-1.09526 -42.33333,-1.90428 z m -742.95003,0.45372 c -14.07531,0.73946 -28.20721,1.3168 -42.333334,1.69137 v 16.97261 c 14.115024,-0.38975 28.249274,-0.97974 42.333334,-1.73891 z m 806.45003,1.97817 v 17.0186 c 7.79061,0.13682 15.55663,0.21032 23.28334,0.21033 v -17.0093 c -7.73253,-0.005 -15.49811,-0.0814 -23.28334,-0.21963 z m -869.950031,0.12454 c -6.803406,0.0824 -13.597348,0.11574 -20.373952,0.0966 l -0.792715,-0.002 v 17.00982 h 0.02325 c 7.028177,0.0198 14.078961,-0.0193 21.143413,-0.11111 z m 600.075021,8.56486 v 16.47703 h 52.91667 v -9.17774 c -18.3543,-2.34767 -36.07165,-4.80831 -52.91667,-7.29929 z m -328.08334,0.47955 c -15.86738,2.35904 -32.48776,4.68873 -49.74166,6.91276 v 9.08472 h 49.74166 z m 402.16668,9.44077 v 6.55671 h 47.625 v -1.34359 c -16.18043,-1.60525 -32.09716,-3.35803 -47.625,-5.21312 z m -473.07501,0.10697 c -15.50362,1.8621 -31.41442,3.62219 -47.62501,5.22914 v 1.2206 h 24.34167 23.28334 z" />
  </g>
</svg>
